<svg xmlns="http://www.w3.org/2000/svg" xmlns:xlink="http://www.w3.org/1999/xlink" width="1080" zoomAndPan="magnify" viewBox="0 0 810 1439.999935" height="1920" preserveAspectRatio="xMidYMid meet" version="1.0"><defs><g/><clipPath id="713930d6f1"><path d="M 122.53125 303.925781 L 296.53125 303.925781 L 296.53125 456.925781 L 122.53125 456.925781 Z M 122.53125 303.925781 " clip-rule="nonzero"/></clipPath></defs><g clip-path="url(#713930d6f1)"><path fill="#f9d100" d="M 209.808594 303.953125 L 210.125 304.269531 L 211.710938 304.269531 L 212.34375 304.585938 L 212.660156 304.585938 L 213.292969 304.90625 L 215.191406 305.855469 L 215.507812 306.488281 L 215.824219 306.804688 L 216.457031 307.125 L 216.773438 307.757812 L 217.722656 308.707031 L 256.425781 375.910156 L 294.730469 442.714844 L 295.046875 443.347656 L 295.679688 444.617188 L 295.996094 445.25 L 295.996094 446.835938 L 296.3125 447.46875 L 295.996094 448.421875 L 295.996094 449.6875 L 295.679688 450.324219 L 295.363281 450.957031 L 295.363281 451.589844 L 295.046875 451.90625 L 294.730469 452.226562 L 294.414062 452.859375 L 293.464844 453.808594 L 293.148438 454.445312 L 292.828125 454.761719 L 290.929688 455.710938 L 290.613281 456.027344 L 289.980469 456.347656 L 289.347656 456.347656 L 288.714844 456.664062 L 287.449219 456.664062 L 286.816406 456.980469 L 209.492188 456.980469 L 132.488281 456.664062 L 130.269531 456.664062 L 129.636719 456.347656 L 129.003906 456.347656 L 128.371094 456.027344 L 128.054688 455.710938 L 126.15625 454.761719 L 125.523438 454.125 L 125.207031 453.808594 L 124.890625 453.175781 L 124.574219 452.859375 L 124.257812 452.226562 L 123.941406 451.90625 L 123.625 451.589844 L 123.625 450.957031 L 123.308594 450.640625 L 123.308594 450.003906 L 122.992188 449.6875 L 122.992188 448.421875 L 122.671875 447.46875 L 122.992188 446.835938 L 122.992188 445.25 L 123.625 443.984375 L 123.625 443.347656 L 124.257812 442.714844 L 162.5625 375.910156 L 201.261719 309.023438 L 201.578125 308.390625 L 202.210938 307.757812 L 202.527344 307.125 L 202.84375 306.804688 L 203.792969 305.855469 L 204.429688 305.539062 L 204.746094 305.222656 L 205.695312 304.90625 L 206.328125 304.585938 L 206.960938 304.585938 L 207.59375 304.269531 L 209.175781 304.269531 L 209.808594 303.953125 " fill-opacity="1" fill-rule="evenodd"/></g><path fill="#1f1a17" d="M 210.441406 308.707031 L 210.757812 309.023438 L 211.390625 309.34375 L 212.027344 309.660156 L 212.34375 309.660156 L 212.660156 310.292969 L 213.609375 311.242188 L 290.613281 444.933594 L 291.246094 445.566406 L 291.246094 446.203125 L 291.5625 446.519531 L 291.5625 447.785156 L 291.246094 448.738281 L 290.929688 449.371094 L 290.613281 450.007812 L 289.347656 451.273438 L 288.082031 451.90625 L 287.132812 452.226562 L 131.539062 452.226562 L 131.222656 451.90625 L 130.589844 451.90625 L 130.269531 451.589844 L 129.953125 451.589844 L 129.636719 451.273438 L 129.003906 450.957031 L 128.371094 450.324219 L 128.054688 449.371094 L 127.738281 448.738281 L 127.421875 447.785156 L 127.421875 447.152344 L 127.738281 446.203125 L 128.054688 445.566406 L 128.054688 444.933594 L 128.371094 444.933594 L 205.378906 311.242188 L 205.378906 310.925781 L 206.960938 309.34375 L 207.277344 309.34375 L 207.59375 309.023438 L 208.542969 309.023438 L 208.859375 308.707031 Z M 275.417969 440.8125 L 143.566406 440.8125 L 209.492188 326.460938 L 275.417969 440.8125 " fill-opacity="1" fill-rule="evenodd"/><path fill="#1f1a17" d="M 198.730469 358.476562 L 199.046875 357.839844 L 199.046875 356.890625 L 199.363281 356.257812 L 199.363281 355.304688 L 199.679688 354.988281 L 199.679688 354.671875 L 200.628906 353.085938 L 201.261719 351.820312 L 202.527344 350.867188 L 203.476562 349.917969 L 205.0625 349.28125 L 206.328125 348.648438 L 207.910156 348.332031 L 209.175781 348.332031 L 210.757812 348.648438 L 212.027344 348.964844 L 213.609375 349.28125 L 214.558594 350.234375 L 215.824219 350.867188 L 216.773438 351.820312 L 217.722656 353.085938 L 218.355469 354.039062 L 218.355469 354.671875 L 218.671875 354.988281 L 218.988281 355.621094 L 218.988281 356.257812 L 219.308594 356.890625 L 219.308594 358.476562 L 215.507812 400.238281 L 215.191406 401.507812 L 214.875 402.457031 L 213.925781 403.410156 L 213.292969 404.359375 L 212.34375 404.992188 L 211.390625 405.3125 L 210.441406 405.628906 L 208.226562 405.628906 L 206.960938 405.3125 L 206.011719 404.992188 L 204.113281 403.726562 L 203.476562 402.773438 L 202.84375 401.507812 L 202.527344 400.238281 Z M 209.175781 411.96875 L 211.390625 412.285156 L 213.292969 412.917969 L 214.875 413.871094 L 216.457031 415.136719 L 217.722656 416.722656 L 218.671875 418.308594 L 219.308594 420.210938 L 219.625 422.429688 L 219.308594 424.328125 L 218.671875 426.230469 L 217.722656 428.132812 L 216.457031 429.71875 L 214.875 430.988281 L 213.292969 431.9375 L 211.390625 432.570312 L 207.277344 432.570312 L 205.378906 431.9375 L 203.476562 430.988281 L 201.894531 429.71875 L 200.628906 428.132812 L 199.679688 426.230469 L 199.046875 424.328125 L 199.046875 420.210938 L 199.679688 418.308594 L 200.628906 416.722656 L 201.894531 415.136719 L 203.476562 413.871094 L 205.378906 412.917969 L 207.277344 412.285156 L 209.175781 411.96875 " fill-opacity="1" fill-rule="evenodd"/><g fill="#ffffff" fill-opacity="1"><g transform="translate(122.53213, 653.874425)"><g><path d="M 71 -17.921875 L 32.015625 -17.921875 L 24.765625 0 L -1.84375 0 L 38.859375 -92.21875 L 64.546875 -92.21875 L 105.390625 0 L 78.25 0 Z M 63.359375 -37.15625 L 51.515625 -66.65625 L 39.65625 -37.15625 Z M 63.359375 -37.15625 "/></g></g></g><g fill="#ffffff" fill-opacity="1"><g transform="translate(219.744575, 653.874425)"><g><path d="M 57.296875 -2.890625 C 55.191406 -1.578125 52.625 -0.570312 49.59375 0.125 C 46.5625 0.832031 43.335938 1.1875 39.921875 1.1875 C 30.609375 1.1875 23.445312 -1.09375 18.4375 -5.65625 C 13.4375 -10.226562 10.9375 -17.035156 10.9375 -26.078125 L 10.9375 -50.0625 L 0.53125 -50.0625 L 0.53125 -68.765625 L 10.9375 -68.765625 L 10.9375 -87.34375 L 35.96875 -87.34375 L 35.96875 -68.765625 L 52.296875 -68.765625 L 52.296875 -50.0625 L 35.96875 -50.0625 L 35.96875 -26.34375 C 35.96875 -23.800781 36.644531 -21.800781 38 -20.34375 C 39.363281 -18.894531 41.1875 -18.171875 43.46875 -18.171875 C 46.363281 -18.171875 48.910156 -18.921875 51.109375 -20.421875 Z M 57.296875 -2.890625 "/></g></g></g><g fill="#ffffff" fill-opacity="1"><g transform="translate(272.302407, 653.874425)"><g><path d="M 81.015625 -35.5625 C 81.015625 -35.394531 80.882812 -33.332031 80.625 -29.375 L 28.71875 -29.375 C 29.769531 -25.6875 31.8125 -22.851562 34.84375 -20.875 C 37.875 -18.90625 41.671875 -17.921875 46.234375 -17.921875 C 49.660156 -17.921875 52.625 -18.398438 55.125 -19.359375 C 57.632812 -20.328125 60.160156 -21.910156 62.703125 -24.109375 L 75.875 -10.40625 C 68.9375 -2.675781 58.796875 1.1875 45.453125 1.1875 C 37.109375 1.1875 29.773438 -0.390625 23.453125 -3.546875 C 17.128906 -6.710938 12.234375 -11.101562 8.765625 -16.71875 C 5.296875 -22.34375 3.5625 -28.710938 3.5625 -35.828125 C 3.5625 -42.859375 5.25 -49.160156 8.625 -54.734375 C 12.007812 -60.304688 16.6875 -64.671875 22.65625 -67.828125 C 28.625 -70.992188 35.34375 -72.578125 42.8125 -72.578125 C 49.925781 -72.578125 56.378906 -71.109375 62.171875 -68.171875 C 67.972656 -65.234375 72.5625 -60.972656 75.9375 -55.390625 C 79.320312 -49.816406 81.015625 -43.207031 81.015625 -35.5625 Z M 42.953125 -54.796875 C 39.085938 -54.796875 35.859375 -53.695312 33.265625 -51.5 C 30.671875 -49.3125 29.023438 -46.328125 28.328125 -42.546875 L 57.5625 -42.546875 C 56.863281 -46.328125 55.21875 -49.3125 52.625 -51.5 C 50.03125 -53.695312 46.804688 -54.796875 42.953125 -54.796875 Z M 42.953125 -54.796875 "/></g></g></g><g fill="#ffffff" fill-opacity="1"><g transform="translate(350.546523, 653.874425)"><g><path d="M 54.53125 -72.578125 C 63.40625 -72.578125 70.539062 -69.941406 75.9375 -64.671875 C 81.34375 -59.410156 84.046875 -51.46875 84.046875 -40.84375 L 84.046875 0 L 59.015625 0 L 59.015625 -36.75 C 59.015625 -46.5 55.109375 -51.375 47.296875 -51.375 C 42.992188 -51.375 39.546875 -49.96875 36.953125 -47.15625 C 34.359375 -44.351562 33.0625 -40.140625 33.0625 -34.515625 L 33.0625 0 L 8.03125 0 L 8.03125 -71.40625 L 31.875 -71.40625 L 31.875 -63.625 C 34.6875 -66.519531 38.023438 -68.734375 41.890625 -70.265625 C 45.753906 -71.804688 49.96875 -72.578125 54.53125 -72.578125 Z M 54.53125 -72.578125 "/></g></g></g><g fill="#ffffff" fill-opacity="1"><g transform="translate(435.903759, 653.874425)"><g><path d="M 44.53125 1.1875 C 36.625 1.1875 29.550781 -0.390625 23.3125 -3.546875 C 17.082031 -6.710938 12.234375 -11.101562 8.765625 -16.71875 C 5.296875 -22.34375 3.5625 -28.710938 3.5625 -35.828125 C 3.5625 -42.941406 5.296875 -49.285156 8.765625 -54.859375 C 12.234375 -60.441406 17.082031 -64.789062 23.3125 -67.90625 C 29.550781 -71.019531 36.625 -72.578125 44.53125 -72.578125 C 52.601562 -72.578125 59.582031 -70.84375 65.46875 -67.375 C 71.351562 -63.90625 75.523438 -59.097656 77.984375 -52.953125 L 58.625 -43.078125 C 55.375 -49.484375 50.628906 -52.6875 44.390625 -52.6875 C 39.910156 -52.6875 36.195312 -51.191406 33.25 -48.203125 C 30.3125 -45.222656 28.84375 -41.097656 28.84375 -35.828125 C 28.84375 -30.472656 30.3125 -26.28125 33.25 -23.25 C 36.195312 -20.21875 39.910156 -18.703125 44.390625 -18.703125 C 50.628906 -18.703125 55.375 -21.910156 58.625 -28.328125 L 77.984375 -18.4375 C 75.523438 -12.289062 71.351562 -7.484375 65.46875 -4.015625 C 59.582031 -0.546875 52.601562 1.1875 44.53125 1.1875 Z M 44.53125 1.1875 "/></g></g></g><g fill="#ffffff" fill-opacity="1"><g transform="translate(509.010639, 653.874425)"><g><path d="M 8.03125 -71.40625 L 33.0625 -71.40625 L 33.0625 0 L 8.03125 0 Z M 20.5625 -79.296875 C 15.988281 -79.296875 12.296875 -80.566406 9.484375 -83.109375 C 6.679688 -85.660156 5.28125 -88.828125 5.28125 -92.609375 C 5.28125 -96.390625 6.679688 -99.550781 9.484375 -102.09375 C 12.296875 -104.644531 15.988281 -105.921875 20.5625 -105.921875 C 25.125 -105.921875 28.8125 -104.710938 31.625 -102.296875 C 34.4375 -99.878906 35.84375 -96.78125 35.84375 -93 C 35.84375 -89.050781 34.4375 -85.78125 31.625 -83.1875 C 28.8125 -80.59375 25.125 -79.296875 20.5625 -79.296875 Z M 20.5625 -79.296875 "/></g></g></g><g fill="#ffffff" fill-opacity="1"><g transform="translate(543.917393, 653.874425)"><g><path d="M 43.875 1.1875 C 36.226562 1.1875 29.332031 -0.390625 23.1875 -3.546875 C 17.039062 -6.710938 12.234375 -11.101562 8.765625 -16.71875 C 5.296875 -22.34375 3.5625 -28.710938 3.5625 -35.828125 C 3.5625 -42.859375 5.296875 -49.179688 8.765625 -54.796875 C 12.234375 -60.421875 17.019531 -64.789062 23.125 -67.90625 C 29.226562 -71.019531 36.144531 -72.578125 43.875 -72.578125 C 51.59375 -72.578125 58.523438 -71.019531 64.671875 -67.90625 C 70.828125 -64.789062 75.613281 -60.441406 79.03125 -54.859375 C 82.457031 -49.285156 84.171875 -42.941406 84.171875 -35.828125 C 84.171875 -28.710938 82.457031 -22.34375 79.03125 -16.71875 C 75.613281 -11.101562 70.828125 -6.710938 64.671875 -3.546875 C 58.523438 -0.390625 51.59375 1.1875 43.875 1.1875 Z M 43.875 -18.703125 C 48.257812 -18.703125 51.859375 -20.21875 54.671875 -23.25 C 57.484375 -26.28125 58.890625 -30.472656 58.890625 -35.828125 C 58.890625 -41.097656 57.484375 -45.222656 54.671875 -48.203125 C 51.859375 -51.191406 48.257812 -52.6875 43.875 -52.6875 C 39.476562 -52.6875 35.875 -51.191406 33.0625 -48.203125 C 30.25 -45.222656 28.84375 -41.097656 28.84375 -35.828125 C 28.84375 -30.472656 30.25 -26.28125 33.0625 -23.25 C 35.875 -20.21875 39.476562 -18.703125 43.875 -18.703125 Z M 48.34375 -99.984375 L 73.375 -99.984375 L 48.609375 -79.96875 L 30.6875 -79.96875 Z M 48.34375 -99.984375 "/></g></g></g><g fill="#ffffff" fill-opacity="1"><g transform="translate(625.322876, 653.874425)"><g><path d="M 54.53125 -72.578125 C 63.40625 -72.578125 70.539062 -69.941406 75.9375 -64.671875 C 81.34375 -59.410156 84.046875 -51.46875 84.046875 -40.84375 L 84.046875 0 L 59.015625 0 L 59.015625 -36.75 C 59.015625 -46.5 55.109375 -51.375 47.296875 -51.375 C 42.992188 -51.375 39.546875 -49.96875 36.953125 -47.15625 C 34.359375 -44.351562 33.0625 -40.140625 33.0625 -34.515625 L 33.0625 0 L 8.03125 0 L 8.03125 -71.40625 L 31.875 -71.40625 L 31.875 -63.625 C 34.6875 -66.519531 38.023438 -68.734375 41.890625 -70.265625 C 45.753906 -71.804688 49.96875 -72.578125 54.53125 -72.578125 Z M 54.53125 -72.578125 "/></g></g></g><g fill="#ffffff" fill-opacity="1"><g transform="translate(122.53213, 791.867202)"><g><path d="M 23.390625 -23.46875 L 8.296875 -23.46875 L 8.296875 -16 L 21.796875 -16 L 21.796875 -11.8125 L 8.296875 -11.8125 L 8.296875 -4.1875 L 23.859375 -4.1875 L 23.859375 0 L 3.640625 0 L 3.640625 -27.65625 L 23.390625 -27.65625 Z M 23.390625 -23.46875 "/></g></g></g><g fill="#ffffff" fill-opacity="1"><g transform="translate(146.547861, 791.867202)"><g><path d="M 9.640625 -21.21875 C 12.535156 -21.21875 14.984375 -20.503906 16.984375 -19.078125 L 15.328125 -15.71875 C 13.328125 -16.957031 11.3125 -17.578125 9.28125 -17.578125 C 7.226562 -17.578125 6.203125 -16.878906 6.203125 -15.484375 C 6.203125 -14.796875 6.582031 -14.226562 7.34375 -13.78125 C 8.113281 -13.332031 9.039062 -12.957031 10.125 -12.65625 C 11.21875 -12.351562 12.3125 -12 13.40625 -11.59375 C 14.5 -11.1875 15.425781 -10.519531 16.1875 -9.59375 C 16.957031 -8.675781 17.34375 -7.503906 17.34375 -6.078125 C 17.34375 -4.054688 16.570312 -2.507812 15.03125 -1.4375 C 13.488281 -0.375 11.570312 0.15625 9.28125 0.15625 C 7.695312 0.15625 6.148438 -0.0976562 4.640625 -0.609375 C 3.128906 -1.117188 1.859375 -1.835938 0.828125 -2.765625 L 2.453125 -6 C 3.347656 -5.207031 4.445312 -4.570312 5.75 -4.09375 C 7.050781 -3.625 8.296875 -3.390625 9.484375 -3.390625 C 10.503906 -3.390625 11.332031 -3.570312 11.96875 -3.9375 C 12.601562 -4.3125 12.921875 -4.882812 12.921875 -5.65625 C 12.921875 -6.4375 12.535156 -7.0625 11.765625 -7.53125 C 11.003906 -8.007812 10.082031 -8.394531 9 -8.6875 C 7.925781 -8.976562 6.847656 -9.320312 5.765625 -9.71875 C 4.679688 -10.113281 3.765625 -10.765625 3.015625 -11.671875 C 2.265625 -12.578125 1.890625 -13.726562 1.890625 -15.125 C 1.890625 -17.125 2.632812 -18.640625 4.125 -19.671875 C 5.613281 -20.703125 7.453125 -21.21875 9.640625 -21.21875 Z M 9.640625 -21.21875 "/></g></g></g><g fill="#ffffff" fill-opacity="1"><g transform="translate(163.216497, 791.867202)"><g><path d="M 14.09375 -4.8125 L 15.25 -1.34375 C 13.507812 -0.3125 11.78125 0.203125 10.0625 0.203125 C 8.351562 0.203125 6.945312 -0.3125 5.84375 -1.34375 C 4.738281 -2.375 4.1875 -3.898438 4.1875 -5.921875 L 4.1875 -16.828125 L 1.21875 -16.828125 L 1.21875 -20.21875 L 4.1875 -20.21875 L 4.1875 -25.984375 L 8.6875 -25.984375 L 8.6875 -20.21875 L 14.890625 -20.21875 L 14.890625 -16.828125 L 8.6875 -16.828125 L 8.6875 -6.75 C 8.6875 -5.695312 8.867188 -4.957031 9.234375 -4.53125 C 9.609375 -4.113281 10.175781 -3.90625 10.9375 -3.90625 C 11.78125 -3.90625 12.832031 -4.207031 14.09375 -4.8125 Z M 14.09375 -4.8125 "/></g></g></g><g fill="#ffffff" fill-opacity="1"><g transform="translate(177.396602, 791.867202)"><g><path d="M 12.359375 -21.171875 C 15.597656 -21.171875 18.234375 -20.1875 20.265625 -18.21875 C 22.296875 -16.257812 23.3125 -13.6875 23.3125 -10.5 C 23.3125 -7.34375 22.296875 -4.773438 20.265625 -2.796875 C 18.234375 -0.828125 15.597656 0.15625 12.359375 0.15625 C 9.097656 0.15625 6.453125 -0.828125 4.421875 -2.796875 C 2.390625 -4.773438 1.375 -7.34375 1.375 -10.5 C 1.375 -13.6875 2.390625 -16.257812 4.421875 -18.21875 C 6.453125 -20.1875 9.097656 -21.171875 12.359375 -21.171875 Z M 12.359375 -17.265625 C 10.460938 -17.265625 8.914062 -16.628906 7.71875 -15.359375 C 6.519531 -14.097656 5.921875 -12.46875 5.921875 -10.46875 C 5.921875 -8.4375 6.519531 -6.789062 7.71875 -5.53125 C 8.914062 -4.269531 10.460938 -3.640625 12.359375 -3.640625 C 14.253906 -3.640625 15.796875 -4.269531 16.984375 -5.53125 C 18.171875 -6.789062 18.765625 -8.4375 18.765625 -10.46875 C 18.765625 -12.46875 18.164062 -14.097656 16.96875 -15.359375 C 15.769531 -16.628906 14.234375 -17.265625 12.359375 -17.265625 Z M 12.359375 -17.265625 "/></g></g></g><g fill="#ffffff" fill-opacity="1"><g transform="translate(200.187803, 791.867202)"><g><path d="M 21.171875 -21.015625 L 11.609375 2.890625 C 10.316406 6.203125 8.039062 7.859375 4.78125 7.859375 C 2.957031 7.859375 1.335938 7.265625 -0.078125 6.078125 L 1.859375 2.5625 C 2.804688 3.25 3.710938 3.59375 4.578125 3.59375 C 6.003906 3.59375 7.070312 2.816406 7.78125 1.265625 L 8.5 -0.3125 L -0.203125 -21.015625 L 4.5 -21.015625 L 10.78125 -5.09375 L 16.625 -21.015625 Z M 21.171875 -21.015625 "/></g></g></g><g fill="#ffffff" fill-opacity="1"><g transform="translate(219.265961, 791.867202)"><g/></g></g><g fill="#ffffff" fill-opacity="1"><g transform="translate(227.56049, 791.867202)"><g><path d="M 8.09375 0 L 3.5625 0 L 3.5625 -29.3125 L 8.09375 -29.3125 Z M 8.09375 0 "/></g></g></g><g fill="#ffffff" fill-opacity="1"><g transform="translate(237.316542, 791.867202)"><g><path d="M 15.953125 0 L 15.953125 -2.5625 C 14.453125 -0.71875 12.132812 0.203125 9 0.203125 C 6.769531 0.203125 4.984375 -0.40625 3.640625 -1.625 C 2.296875 -2.851562 1.625 -4.414062 1.625 -6.3125 C 1.625 -8.238281 2.320312 -9.765625 3.71875 -10.890625 C 5.113281 -12.023438 7.0625 -12.609375 9.5625 -12.640625 L 15.921875 -12.640625 L 15.921875 -13.265625 C 15.921875 -14.609375 15.488281 -15.648438 14.625 -16.390625 C 13.769531 -17.128906 12.53125 -17.5 10.90625 -17.5 C 8.875 -17.5 6.804688 -16.785156 4.703125 -15.359375 L 2.84375 -18.53125 C 4.445312 -19.476562 5.882812 -20.15625 7.15625 -20.5625 C 8.4375 -20.96875 10.015625 -21.171875 11.890625 -21.171875 C 14.578125 -21.171875 16.65625 -20.519531 18.125 -19.21875 C 19.601562 -17.914062 20.351562 -16.101562 20.375 -13.78125 L 20.421875 0 Z M 9.953125 -3.390625 C 11.554688 -3.390625 12.914062 -3.765625 14.03125 -4.515625 C 15.15625 -5.273438 15.785156 -6.234375 15.921875 -7.390625 L 15.921875 -9.328125 L 10.234375 -9.328125 C 8.734375 -9.328125 7.632812 -9.109375 6.9375 -8.671875 C 6.238281 -8.234375 5.890625 -7.515625 5.890625 -6.515625 C 5.890625 -5.566406 6.25 -4.804688 6.96875 -4.234375 C 7.695312 -3.671875 8.691406 -3.390625 9.953125 -3.390625 Z M 9.953125 -3.390625 "/></g></g></g><g fill="#ffffff" fill-opacity="1"><g transform="translate(258.567228, 791.867202)"><g><path d="M 15.640625 -21.171875 C 18.085938 -21.171875 20.003906 -20.453125 21.390625 -19.015625 C 22.773438 -17.578125 23.46875 -15.597656 23.46875 -13.078125 L 23.46875 0 L 18.921875 0 L 18.921875 -11.8125 C 18.921875 -13.394531 18.472656 -14.640625 17.578125 -15.546875 C 16.679688 -16.453125 15.441406 -16.90625 13.859375 -16.90625 C 12.179688 -16.875 10.804688 -16.332031 9.734375 -15.28125 C 8.671875 -14.226562 8.0625 -12.859375 7.90625 -11.171875 L 7.90625 0 L 3.359375 0 L 3.359375 -21.015625 L 7.90625 -21.015625 L 7.90625 -16.984375 C 9.320312 -19.773438 11.898438 -21.171875 15.640625 -21.171875 Z M 15.640625 -21.171875 "/></g></g></g><g fill="#ffffff" fill-opacity="1"><g transform="translate(282.859448, 791.867202)"><g><path d="M 19.390625 -17.9375 L 7.390625 -3.71875 L 19.75 -3.671875 L 19.75 0.046875 L 1.78125 0 L 1.78125 -3.078125 L 13.78125 -17.296875 L 2.140625 -17.296875 L 2.140625 -21.015625 L 19.390625 -20.96875 Z M 19.390625 -17.9375 "/></g></g></g><g fill="#ffffff" fill-opacity="1"><g transform="translate(302.174628, 791.867202)"><g><path d="M 15.953125 0 L 15.953125 -2.5625 C 14.453125 -0.71875 12.132812 0.203125 9 0.203125 C 6.769531 0.203125 4.984375 -0.40625 3.640625 -1.625 C 2.296875 -2.851562 1.625 -4.414062 1.625 -6.3125 C 1.625 -8.238281 2.320312 -9.765625 3.71875 -10.890625 C 5.113281 -12.023438 7.0625 -12.609375 9.5625 -12.640625 L 15.921875 -12.640625 L 15.921875 -13.265625 C 15.921875 -14.609375 15.488281 -15.648438 14.625 -16.390625 C 13.769531 -17.128906 12.53125 -17.5 10.90625 -17.5 C 8.875 -17.5 6.804688 -16.785156 4.703125 -15.359375 L 2.84375 -18.53125 C 4.445312 -19.476562 5.882812 -20.15625 7.15625 -20.5625 C 8.4375 -20.96875 10.015625 -21.171875 11.890625 -21.171875 C 14.578125 -21.171875 16.65625 -20.519531 18.125 -19.21875 C 19.601562 -17.914062 20.351562 -16.101562 20.375 -13.78125 L 20.421875 0 Z M 9.953125 -3.390625 C 11.554688 -3.390625 12.914062 -3.765625 14.03125 -4.515625 C 15.15625 -5.273438 15.785156 -6.234375 15.921875 -7.390625 L 15.921875 -9.328125 L 10.234375 -9.328125 C 8.734375 -9.328125 7.632812 -9.109375 6.9375 -8.671875 C 6.238281 -8.234375 5.890625 -7.515625 5.890625 -6.515625 C 5.890625 -5.566406 6.25 -4.804688 6.96875 -4.234375 C 7.695312 -3.671875 8.691406 -3.390625 9.953125 -3.390625 Z M 9.953125 -3.390625 "/></g></g></g><g fill="#ffffff" fill-opacity="1"><g transform="translate(323.425321, 791.867202)"><g><path d="M 15.640625 -21.171875 C 18.085938 -21.171875 20.003906 -20.453125 21.390625 -19.015625 C 22.773438 -17.578125 23.46875 -15.597656 23.46875 -13.078125 L 23.46875 0 L 18.921875 0 L 18.921875 -11.8125 C 18.921875 -13.394531 18.472656 -14.640625 17.578125 -15.546875 C 16.679688 -16.453125 15.441406 -16.90625 13.859375 -16.90625 C 12.179688 -16.875 10.804688 -16.332031 9.734375 -15.28125 C 8.671875 -14.226562 8.0625 -12.859375 7.90625 -11.171875 L 7.90625 0 L 3.359375 0 L 3.359375 -21.015625 L 7.90625 -21.015625 L 7.90625 -16.984375 C 9.320312 -19.773438 11.898438 -21.171875 15.640625 -21.171875 Z M 15.640625 -21.171875 "/></g></g></g><g fill="#ffffff" fill-opacity="1"><g transform="translate(347.717551, 791.867202)"><g><path d="M 23.390625 -29.3125 L 23.390625 0 L 18.84375 0 L 18.84375 -3.59375 C 17.289062 -1.0625 14.828125 0.203125 11.453125 0.203125 C 8.453125 0.203125 6.019531 -0.789062 4.15625 -2.78125 C 2.300781 -4.769531 1.375 -7.375 1.375 -10.59375 C 1.375 -13.75 2.296875 -16.304688 4.140625 -18.265625 C 5.984375 -20.234375 8.394531 -21.21875 11.375 -21.21875 C 14.75 -21.21875 17.238281 -19.9375 18.84375 -17.375 L 18.84375 -29.3125 Z M 7.765625 -5.5 C 8.960938 -4.226562 10.507812 -3.59375 12.40625 -3.59375 C 14.300781 -3.59375 15.847656 -4.226562 17.046875 -5.5 C 18.242188 -6.78125 18.84375 -8.421875 18.84375 -10.421875 C 18.84375 -12.453125 18.242188 -14.113281 17.046875 -15.40625 C 15.847656 -16.695312 14.300781 -17.34375 12.40625 -17.34375 C 10.507812 -17.34375 8.960938 -16.695312 7.765625 -15.40625 C 6.566406 -14.113281 5.953125 -12.453125 5.921875 -10.421875 C 5.953125 -8.421875 6.566406 -6.78125 7.765625 -5.5 Z M 7.765625 -5.5 "/></g></g></g><g fill="#ffffff" fill-opacity="1"><g transform="translate(372.760298, 791.867202)"><g><path d="M 12.359375 -21.171875 C 15.597656 -21.171875 18.234375 -20.1875 20.265625 -18.21875 C 22.296875 -16.257812 23.3125 -13.6875 23.3125 -10.5 C 23.3125 -7.34375 22.296875 -4.773438 20.265625 -2.796875 C 18.234375 -0.828125 15.597656 0.15625 12.359375 0.15625 C 9.097656 0.15625 6.453125 -0.828125 4.421875 -2.796875 C 2.390625 -4.773438 1.375 -7.34375 1.375 -10.5 C 1.375 -13.6875 2.390625 -16.257812 4.421875 -18.21875 C 6.453125 -20.1875 9.097656 -21.171875 12.359375 -21.171875 Z M 12.359375 -17.265625 C 10.460938 -17.265625 8.914062 -16.628906 7.71875 -15.359375 C 6.519531 -14.097656 5.921875 -12.46875 5.921875 -10.46875 C 5.921875 -8.4375 6.519531 -6.789062 7.71875 -5.53125 C 8.914062 -4.269531 10.460938 -3.640625 12.359375 -3.640625 C 14.253906 -3.640625 15.796875 -4.269531 16.984375 -5.53125 C 18.171875 -6.789062 18.765625 -8.4375 18.765625 -10.46875 C 18.765625 -12.46875 18.164062 -14.097656 16.96875 -15.359375 C 15.769531 -16.628906 14.234375 -17.265625 12.359375 -17.265625 Z M 12.359375 -17.265625 "/></g></g></g><g fill="#ffffff" fill-opacity="1"><g transform="translate(395.551507, 791.867202)"><g/></g></g><g fill="#ffffff" fill-opacity="1"><g transform="translate(403.846045, 791.867202)"><g><path d="M 22.4375 -21.015625 L 22.4375 0 L 17.890625 0 L 17.890625 -4.109375 C 16.523438 -1.316406 14.023438 0.101562 10.390625 0.15625 C 7.992188 0.15625 6.109375 -0.566406 4.734375 -2.015625 C 3.367188 -3.460938 2.6875 -5.4375 2.6875 -7.9375 L 2.6875 -21.015625 L 7.234375 -21.015625 L 7.234375 -9.203125 C 7.234375 -7.617188 7.664062 -6.375 8.53125 -5.46875 C 9.394531 -4.5625 10.59375 -4.109375 12.125 -4.109375 C 13.882812 -4.128906 15.285156 -4.753906 16.328125 -5.984375 C 17.367188 -7.210938 17.890625 -8.773438 17.890625 -10.671875 L 17.890625 -21.015625 Z M 22.4375 -21.015625 "/></g></g></g><g fill="#ffffff" fill-opacity="1"><g transform="translate(427.743276, 791.867202)"><g><path d="M 15.640625 -21.171875 C 18.085938 -21.171875 20.003906 -20.453125 21.390625 -19.015625 C 22.773438 -17.578125 23.46875 -15.597656 23.46875 -13.078125 L 23.46875 0 L 18.921875 0 L 18.921875 -11.8125 C 18.921875 -13.394531 18.472656 -14.640625 17.578125 -15.546875 C 16.679688 -16.453125 15.441406 -16.90625 13.859375 -16.90625 C 12.179688 -16.875 10.804688 -16.332031 9.734375 -15.28125 C 8.671875 -14.226562 8.0625 -12.859375 7.90625 -11.171875 L 7.90625 0 L 3.359375 0 L 3.359375 -21.015625 L 7.90625 -21.015625 L 7.90625 -16.984375 C 9.320312 -19.773438 11.898438 -21.171875 15.640625 -21.171875 Z M 15.640625 -21.171875 "/></g></g></g><g fill="#ffffff" fill-opacity="1"><g transform="translate(452.035487, 791.867202)"><g/></g></g><g fill="#ffffff" fill-opacity="1"><g transform="translate(460.330007, 791.867202)"><g><path d="M 11.96875 -21.171875 C 15.757812 -21.171875 18.65625 -20.023438 20.65625 -17.734375 L 18.171875 -14.8125 C 16.585938 -16.414062 14.585938 -17.207031 12.171875 -17.1875 C 10.347656 -17.1875 8.847656 -16.5625 7.671875 -15.3125 C 6.503906 -14.0625 5.921875 -12.445312 5.921875 -10.46875 C 5.921875 -8.488281 6.503906 -6.875 7.671875 -5.625 C 8.847656 -4.375 10.347656 -3.75 12.171875 -3.75 C 14.847656 -3.75 16.914062 -4.59375 18.375 -6.28125 L 20.890625 -3.75 C 18.921875 -1.144531 15.945312 0.15625 11.96875 0.15625 C 8.832031 0.15625 6.28125 -0.820312 4.3125 -2.78125 C 2.351562 -4.75 1.375 -7.3125 1.375 -10.46875 C 1.375 -13.65625 2.351562 -16.234375 4.3125 -18.203125 C 6.28125 -20.179688 8.832031 -21.171875 11.96875 -21.171875 Z M 11.96875 -21.171875 "/></g></g></g><g fill="#ffffff" fill-opacity="1"><g transform="translate(480.711676, 791.867202)"><g><path d="M 22.4375 -21.015625 L 22.4375 0 L 17.890625 0 L 17.890625 -4.109375 C 16.523438 -1.316406 14.023438 0.101562 10.390625 0.15625 C 7.992188 0.15625 6.109375 -0.566406 4.734375 -2.015625 C 3.367188 -3.460938 2.6875 -5.4375 2.6875 -7.9375 L 2.6875 -21.015625 L 7.234375 -21.015625 L 7.234375 -9.203125 C 7.234375 -7.617188 7.664062 -6.375 8.53125 -5.46875 C 9.394531 -4.5625 10.59375 -4.109375 12.125 -4.109375 C 13.882812 -4.128906 15.285156 -4.753906 16.328125 -5.984375 C 17.367188 -7.210938 17.890625 -8.773438 17.890625 -10.671875 L 17.890625 -21.015625 Z M 22.4375 -21.015625 "/></g></g></g><g fill="#ffffff" fill-opacity="1"><g transform="translate(504.608889, 791.867202)"><g><path d="M 15.4375 -21.171875 C 18.414062 -21.171875 20.832031 -20.175781 22.6875 -18.1875 C 24.550781 -16.195312 25.484375 -13.609375 25.484375 -10.421875 C 25.484375 -7.265625 24.570312 -4.710938 22.75 -2.765625 C 20.9375 -0.816406 18.53125 0.15625 15.53125 0.15625 C 12.15625 0.15625 9.675781 -1.109375 8.09375 -3.640625 L 8.09375 7.65625 L 3.5625 7.65625 L 3.5625 -21.015625 L 8.09375 -21.015625 L 8.09375 -17.375 C 9.675781 -19.90625 12.125 -21.171875 15.4375 -21.171875 Z M 9.890625 -5.625 C 11.085938 -4.351562 12.617188 -3.71875 14.484375 -3.71875 C 16.359375 -3.71875 17.894531 -4.351562 19.09375 -5.625 C 20.289062 -6.90625 20.890625 -8.5625 20.890625 -10.59375 C 20.890625 -12.5625 20.289062 -14.179688 19.09375 -15.453125 C 17.894531 -16.734375 16.359375 -17.375 14.484375 -17.375 C 12.617188 -17.375 11.085938 -16.734375 9.890625 -15.453125 C 8.691406 -14.179688 8.09375 -12.5625 8.09375 -10.59375 C 8.09375 -8.5625 8.691406 -6.90625 9.890625 -5.625 Z M 9.890625 -5.625 "/></g></g></g><g fill="#ffffff" fill-opacity="1"><g transform="translate(529.572627, 791.867202)"><g><path d="M 18.53125 -27.890625 L 13.703125 -24.015625 L 9.671875 -24.015625 L 13.859375 -29.859375 Z M 12.359375 -21.171875 C 15.597656 -21.171875 18.234375 -20.1875 20.265625 -18.21875 C 22.296875 -16.257812 23.3125 -13.6875 23.3125 -10.5 C 23.3125 -7.34375 22.296875 -4.773438 20.265625 -2.796875 C 18.234375 -0.828125 15.597656 0.15625 12.359375 0.15625 C 9.097656 0.15625 6.453125 -0.828125 4.421875 -2.796875 C 2.390625 -4.773438 1.375 -7.34375 1.375 -10.5 C 1.375 -13.6875 2.390625 -16.257812 4.421875 -18.21875 C 6.453125 -20.1875 9.097656 -21.171875 12.359375 -21.171875 Z M 12.359375 -17.265625 C 10.460938 -17.265625 8.914062 -16.628906 7.71875 -15.359375 C 6.519531 -14.097656 5.921875 -12.46875 5.921875 -10.46875 C 5.921875 -8.4375 6.519531 -6.789062 7.71875 -5.53125 C 8.914062 -4.269531 10.460938 -3.640625 12.359375 -3.640625 C 14.253906 -3.640625 15.796875 -4.269531 16.984375 -5.53125 C 18.171875 -6.789062 18.765625 -8.4375 18.765625 -10.46875 C 18.765625 -12.46875 18.164062 -14.097656 16.96875 -15.359375 C 15.769531 -16.628906 14.234375 -17.265625 12.359375 -17.265625 Z M 12.359375 -17.265625 "/></g></g></g><g fill="#ffffff" fill-opacity="1"><g transform="translate(552.363836, 791.867202)"><g><path d="M 15.640625 -21.171875 C 18.085938 -21.171875 20.003906 -20.453125 21.390625 -19.015625 C 22.773438 -17.578125 23.46875 -15.597656 23.46875 -13.078125 L 23.46875 0 L 18.921875 0 L 18.921875 -11.8125 C 18.921875 -13.394531 18.472656 -14.640625 17.578125 -15.546875 C 16.679688 -16.453125 15.441406 -16.90625 13.859375 -16.90625 C 12.179688 -16.875 10.804688 -16.332031 9.734375 -15.28125 C 8.671875 -14.226562 8.0625 -12.859375 7.90625 -11.171875 L 7.90625 0 L 3.359375 0 L 3.359375 -21.015625 L 7.90625 -21.015625 L 7.90625 -16.984375 C 9.320312 -19.773438 11.898438 -21.171875 15.640625 -21.171875 Z M 15.640625 -21.171875 "/></g></g></g><g fill="#ffffff" fill-opacity="1"><g transform="translate(576.656048, 791.867202)"><g/></g></g><g fill="#ffffff" fill-opacity="1"><g transform="translate(584.950568, 791.867202)"><g><path d="M 23.390625 -29.3125 L 23.390625 0 L 18.84375 0 L 18.84375 -3.59375 C 17.289062 -1.0625 14.828125 0.203125 11.453125 0.203125 C 8.453125 0.203125 6.019531 -0.789062 4.15625 -2.78125 C 2.300781 -4.769531 1.375 -7.375 1.375 -10.59375 C 1.375 -13.75 2.296875 -16.304688 4.140625 -18.265625 C 5.984375 -20.234375 8.394531 -21.21875 11.375 -21.21875 C 14.75 -21.21875 17.238281 -19.9375 18.84375 -17.375 L 18.84375 -29.3125 Z M 7.765625 -5.5 C 8.960938 -4.226562 10.507812 -3.59375 12.40625 -3.59375 C 14.300781 -3.59375 15.847656 -4.226562 17.046875 -5.5 C 18.242188 -6.78125 18.84375 -8.421875 18.84375 -10.421875 C 18.84375 -12.453125 18.242188 -14.113281 17.046875 -15.40625 C 15.847656 -16.695312 14.300781 -17.34375 12.40625 -17.34375 C 10.507812 -17.34375 8.960938 -16.695312 7.765625 -15.40625 C 6.566406 -14.113281 5.953125 -12.453125 5.921875 -10.421875 C 5.953125 -8.421875 6.566406 -6.78125 7.765625 -5.5 Z M 7.765625 -5.5 "/></g></g></g><g fill="#ffffff" fill-opacity="1"><g transform="translate(609.993298, 791.867202)"><g><path d="M 12.015625 -21.171875 C 15.617188 -21.171875 18.226562 -20.082031 19.84375 -17.90625 C 21.46875 -15.738281 22.132812 -12.691406 21.84375 -8.765625 L 5.96875 -8.765625 C 6.332031 -7.128906 7.09375 -5.84375 8.25 -4.90625 C 9.414062 -3.976562 10.828125 -3.515625 12.484375 -3.515625 C 14.847656 -3.515625 16.820312 -4.332031 18.40625 -5.96875 L 20.8125 -3.390625 C 18.65625 -1.023438 15.757812 0.15625 12.125 0.15625 C 8.882812 0.15625 6.28125 -0.820312 4.3125 -2.78125 C 2.351562 -4.75 1.375 -7.3125 1.375 -10.46875 C 1.375 -13.625 2.363281 -16.1875 4.34375 -18.15625 C 6.320312 -20.132812 8.878906 -21.140625 12.015625 -21.171875 Z M 5.890625 -12.09375 L 17.890625 -12.09375 C 17.816406 -13.769531 17.25 -15.09375 16.1875 -16.0625 C 15.132812 -17.039062 13.753906 -17.53125 12.046875 -17.53125 C 10.390625 -17.53125 9.015625 -17.039062 7.921875 -16.0625 C 6.828125 -15.09375 6.148438 -13.769531 5.890625 -12.09375 Z M 5.890625 -12.09375 "/></g></g></g><g fill="#ffffff" fill-opacity="1"><g transform="translate(122.53213, 846.57654)"><g><path d="M 11.375 -27.84375 C 14.007812 -27.84375 16.132812 -27.210938 17.75 -25.953125 C 19.375 -24.691406 20.1875 -23.003906 20.1875 -20.890625 C 20.1875 -18.472656 18.5 -15.445312 15.125 -11.8125 L 7.9375 -4.1875 L 21.453125 -4.1875 L 21.453125 0 L 1.78125 0 L 1.78125 -3.390625 L 11.96875 -14.34375 C 14.207031 -16.632812 15.328125 -18.59375 15.328125 -20.21875 C 15.328125 -21.332031 14.914062 -22.203125 14.09375 -22.828125 C 13.28125 -23.460938 12.148438 -23.78125 10.703125 -23.78125 C 8.203125 -23.78125 5.6875 -22.617188 3.15625 -20.296875 L 1.296875 -23.890625 C 4.535156 -26.523438 7.894531 -27.84375 11.375 -27.84375 Z M 11.375 -27.84375 "/></g></g></g><g fill="#ffffff" fill-opacity="1"><g transform="translate(143.861827, 846.57654)"><g><path d="M 13.671875 -27.765625 C 17.429688 -27.765625 20.328125 -26.5625 22.359375 -24.15625 C 24.390625 -21.75 25.40625 -18.304688 25.40625 -13.828125 C 25.40625 -9.347656 24.390625 -5.898438 22.359375 -3.484375 C 20.328125 -1.078125 17.429688 0.125 13.671875 0.125 C 9.878906 0.125 6.96875 -1.078125 4.9375 -3.484375 C 2.90625 -5.898438 1.890625 -9.347656 1.890625 -13.828125 C 1.890625 -18.304688 2.90625 -21.75 4.9375 -24.15625 C 6.96875 -26.5625 9.878906 -27.765625 13.671875 -27.765625 Z M 13.671875 -24.09375 C 9.003906 -24.09375 6.671875 -20.671875 6.671875 -13.828125 C 6.671875 -6.984375 9.003906 -3.5625 13.671875 -3.5625 C 18.304688 -3.5625 20.625 -6.984375 20.625 -13.828125 C 20.625 -20.671875 18.304688 -24.09375 13.671875 -24.09375 Z M 13.671875 -24.09375 "/></g></g></g><g fill="#ffffff" fill-opacity="1"><g transform="translate(169.260071, 846.57654)"><g><path d="M 3.453125 -25.53125 C 4.753906 -27 6.535156 -27.734375 8.796875 -27.734375 C 11.066406 -27.734375 12.851562 -27 14.15625 -25.53125 C 15.457031 -24.070312 16.109375 -22.066406 16.109375 -19.515625 C 16.109375 -16.929688 15.457031 -14.898438 14.15625 -13.421875 C 12.851562 -11.953125 11.066406 -11.21875 8.796875 -11.21875 C 6.535156 -11.21875 4.753906 -11.953125 3.453125 -13.421875 C 2.148438 -14.898438 1.5 -16.929688 1.5 -19.515625 C 1.5 -22.066406 2.148438 -24.070312 3.453125 -25.53125 Z M 6.71875 0 L 27.0625 -27.65625 L 31.40625 -27.65625 L 11.09375 0 Z M 11.984375 -23.59375 C 11.234375 -24.5625 10.171875 -25.046875 8.796875 -25.046875 C 7.429688 -25.046875 6.378906 -24.5625 5.640625 -23.59375 C 4.910156 -22.632812 4.546875 -21.273438 4.546875 -19.515625 C 4.546875 -17.722656 4.910156 -16.335938 5.640625 -15.359375 C 6.378906 -14.390625 7.429688 -13.90625 8.796875 -13.90625 C 10.171875 -13.90625 11.234375 -14.394531 11.984375 -15.375 C 12.734375 -16.363281 13.109375 -17.738281 13.109375 -19.5 C 13.109375 -21.269531 12.734375 -22.632812 11.984375 -23.59375 Z M 24.265625 -14.203125 C 25.578125 -15.660156 27.363281 -16.390625 29.625 -16.390625 C 31.882812 -16.390625 33.664062 -15.660156 34.96875 -14.203125 C 36.28125 -12.742188 36.9375 -10.734375 36.9375 -8.171875 C 36.9375 -5.597656 36.28125 -3.578125 34.96875 -2.109375 C 33.664062 -0.648438 31.882812 0.078125 29.625 0.078125 C 27.363281 0.078125 25.578125 -0.648438 24.265625 -2.109375 C 22.960938 -3.578125 22.3125 -5.597656 22.3125 -8.171875 C 22.3125 -10.734375 22.960938 -12.742188 24.265625 -14.203125 Z M 32.796875 -12.28125 C 32.046875 -13.257812 30.988281 -13.75 29.625 -13.75 C 28.257812 -13.75 27.207031 -13.257812 26.46875 -12.28125 C 25.726562 -11.3125 25.359375 -9.941406 25.359375 -8.171875 C 25.359375 -6.378906 25.726562 -5.003906 26.46875 -4.046875 C 27.207031 -3.085938 28.257812 -2.609375 29.625 -2.609375 C 30.988281 -2.609375 32.046875 -3.09375 32.796875 -4.0625 C 33.554688 -5.039062 33.9375 -6.410156 33.9375 -8.171875 C 33.9375 -9.941406 33.554688 -11.3125 32.796875 -12.28125 Z M 32.796875 -12.28125 "/></g></g></g><g fill="#ffffff" fill-opacity="1"><g transform="translate(205.797447, 846.57654)"><g/></g></g><g fill="#ffffff" fill-opacity="1"><g transform="translate(214.091976, 846.57654)"><g><path d="M 23.390625 -29.3125 L 23.390625 0 L 18.84375 0 L 18.84375 -3.59375 C 17.289062 -1.0625 14.828125 0.203125 11.453125 0.203125 C 8.453125 0.203125 6.019531 -0.789062 4.15625 -2.78125 C 2.300781 -4.769531 1.375 -7.375 1.375 -10.59375 C 1.375 -13.75 2.296875 -16.304688 4.140625 -18.265625 C 5.984375 -20.234375 8.394531 -21.21875 11.375 -21.21875 C 14.75 -21.21875 17.238281 -19.9375 18.84375 -17.375 L 18.84375 -29.3125 Z M 7.765625 -5.5 C 8.960938 -4.226562 10.507812 -3.59375 12.40625 -3.59375 C 14.300781 -3.59375 15.847656 -4.226562 17.046875 -5.5 C 18.242188 -6.78125 18.84375 -8.421875 18.84375 -10.421875 C 18.84375 -12.453125 18.242188 -14.113281 17.046875 -15.40625 C 15.847656 -16.695312 14.300781 -17.34375 12.40625 -17.34375 C 10.507812 -17.34375 8.960938 -16.695312 7.765625 -15.40625 C 6.566406 -14.113281 5.953125 -12.453125 5.921875 -10.421875 C 5.953125 -8.421875 6.566406 -6.78125 7.765625 -5.5 Z M 7.765625 -5.5 "/></g></g></g><g fill="#ffffff" fill-opacity="1"><g transform="translate(239.134716, 846.57654)"><g><path d="M 12.015625 -21.171875 C 15.617188 -21.171875 18.226562 -20.082031 19.84375 -17.90625 C 21.46875 -15.738281 22.132812 -12.691406 21.84375 -8.765625 L 5.96875 -8.765625 C 6.332031 -7.128906 7.09375 -5.84375 8.25 -4.90625 C 9.414062 -3.976562 10.828125 -3.515625 12.484375 -3.515625 C 14.847656 -3.515625 16.820312 -4.332031 18.40625 -5.96875 L 20.8125 -3.390625 C 18.65625 -1.023438 15.757812 0.15625 12.125 0.15625 C 8.882812 0.15625 6.28125 -0.820312 4.3125 -2.78125 C 2.351562 -4.75 1.375 -7.3125 1.375 -10.46875 C 1.375 -13.625 2.363281 -16.1875 4.34375 -18.15625 C 6.320312 -20.132812 8.878906 -21.140625 12.015625 -21.171875 Z M 5.890625 -12.09375 L 17.890625 -12.09375 C 17.816406 -13.769531 17.25 -15.09375 16.1875 -16.0625 C 15.132812 -17.039062 13.753906 -17.53125 12.046875 -17.53125 C 10.390625 -17.53125 9.015625 -17.039062 7.921875 -16.0625 C 6.828125 -15.09375 6.148438 -13.769531 5.890625 -12.09375 Z M 5.890625 -12.09375 "/></g></g></g><g fill="#ffffff" fill-opacity="1"><g transform="translate(260.46441, 846.57654)"><g/></g></g><g fill="#ffffff" fill-opacity="1"><g transform="translate(268.75894, 846.57654)"><g><path d="M 23.390625 -29.3125 L 23.390625 0 L 18.84375 0 L 18.84375 -3.59375 C 17.289062 -1.0625 14.828125 0.203125 11.453125 0.203125 C 8.453125 0.203125 6.019531 -0.789062 4.15625 -2.78125 C 2.300781 -4.769531 1.375 -7.375 1.375 -10.59375 C 1.375 -13.75 2.296875 -16.304688 4.140625 -18.265625 C 5.984375 -20.234375 8.394531 -21.21875 11.375 -21.21875 C 14.75 -21.21875 17.238281 -19.9375 18.84375 -17.375 L 18.84375 -29.3125 Z M 7.765625 -5.5 C 8.960938 -4.226562 10.507812 -3.59375 12.40625 -3.59375 C 14.300781 -3.59375 15.847656 -4.226562 17.046875 -5.5 C 18.242188 -6.78125 18.84375 -8.421875 18.84375 -10.421875 C 18.84375 -12.453125 18.242188 -14.113281 17.046875 -15.40625 C 15.847656 -16.695312 14.300781 -17.34375 12.40625 -17.34375 C 10.507812 -17.34375 8.960938 -16.695312 7.765625 -15.40625 C 6.566406 -14.113281 5.953125 -12.453125 5.921875 -10.421875 C 5.953125 -8.421875 6.566406 -6.78125 7.765625 -5.5 Z M 7.765625 -5.5 "/></g></g></g><g fill="#ffffff" fill-opacity="1"><g transform="translate(293.801687, 846.57654)"><g><path d="M 12.015625 -21.171875 C 15.617188 -21.171875 18.226562 -20.082031 19.84375 -17.90625 C 21.46875 -15.738281 22.132812 -12.691406 21.84375 -8.765625 L 5.96875 -8.765625 C 6.332031 -7.128906 7.09375 -5.84375 8.25 -4.90625 C 9.414062 -3.976562 10.828125 -3.515625 12.484375 -3.515625 C 14.847656 -3.515625 16.820312 -4.332031 18.40625 -5.96875 L 20.8125 -3.390625 C 18.65625 -1.023438 15.757812 0.15625 12.125 0.15625 C 8.882812 0.15625 6.28125 -0.820312 4.3125 -2.78125 C 2.351562 -4.75 1.375 -7.3125 1.375 -10.46875 C 1.375 -13.625 2.363281 -16.1875 4.34375 -18.15625 C 6.320312 -20.132812 8.878906 -21.140625 12.015625 -21.171875 Z M 5.890625 -12.09375 L 17.890625 -12.09375 C 17.816406 -13.769531 17.25 -15.09375 16.1875 -16.0625 C 15.132812 -17.039062 13.753906 -17.53125 12.046875 -17.53125 C 10.390625 -17.53125 9.015625 -17.039062 7.921875 -16.0625 C 6.828125 -15.09375 6.148438 -13.769531 5.890625 -12.09375 Z M 5.890625 -12.09375 "/></g></g></g><g fill="#ffffff" fill-opacity="1"><g transform="translate(315.131391, 846.57654)"><g><path d="M 9.640625 -21.21875 C 12.535156 -21.21875 14.984375 -20.503906 16.984375 -19.078125 L 15.328125 -15.71875 C 13.328125 -16.957031 11.3125 -17.578125 9.28125 -17.578125 C 7.226562 -17.578125 6.203125 -16.878906 6.203125 -15.484375 C 6.203125 -14.796875 6.582031 -14.226562 7.34375 -13.78125 C 8.113281 -13.332031 9.039062 -12.957031 10.125 -12.65625 C 11.21875 -12.351562 12.3125 -12 13.40625 -11.59375 C 14.5 -11.1875 15.425781 -10.519531 16.1875 -9.59375 C 16.957031 -8.675781 17.34375 -7.503906 17.34375 -6.078125 C 17.34375 -4.054688 16.570312 -2.507812 15.03125 -1.4375 C 13.488281 -0.375 11.570312 0.15625 9.28125 0.15625 C 7.695312 0.15625 6.148438 -0.0976562 4.640625 -0.609375 C 3.128906 -1.117188 1.859375 -1.835938 0.828125 -2.765625 L 2.453125 -6 C 3.347656 -5.207031 4.445312 -4.570312 5.75 -4.09375 C 7.050781 -3.625 8.296875 -3.390625 9.484375 -3.390625 C 10.503906 -3.390625 11.332031 -3.570312 11.96875 -3.9375 C 12.601562 -4.3125 12.921875 -4.882812 12.921875 -5.65625 C 12.921875 -6.4375 12.535156 -7.0625 11.765625 -7.53125 C 11.003906 -8.007812 10.082031 -8.394531 9 -8.6875 C 7.925781 -8.976562 6.847656 -9.320312 5.765625 -9.71875 C 4.679688 -10.113281 3.765625 -10.765625 3.015625 -11.671875 C 2.265625 -12.578125 1.890625 -13.726562 1.890625 -15.125 C 1.890625 -17.125 2.632812 -18.640625 4.125 -19.671875 C 5.613281 -20.703125 7.453125 -21.21875 9.640625 -21.21875 Z M 9.640625 -21.21875 "/></g></g></g><g fill="#ffffff" fill-opacity="1"><g transform="translate(331.800034, 846.57654)"><g><path d="M 11.96875 -21.171875 C 15.757812 -21.171875 18.65625 -20.023438 20.65625 -17.734375 L 18.171875 -14.8125 C 16.585938 -16.414062 14.585938 -17.207031 12.171875 -17.1875 C 10.347656 -17.1875 8.847656 -16.5625 7.671875 -15.3125 C 6.503906 -14.0625 5.921875 -12.445312 5.921875 -10.46875 C 5.921875 -8.488281 6.503906 -6.875 7.671875 -5.625 C 8.847656 -4.375 10.347656 -3.75 12.171875 -3.75 C 14.847656 -3.75 16.914062 -4.59375 18.375 -6.28125 L 20.890625 -3.75 C 18.921875 -1.144531 15.945312 0.15625 11.96875 0.15625 C 8.832031 0.15625 6.28125 -0.820312 4.3125 -2.78125 C 2.351562 -4.75 1.375 -7.3125 1.375 -10.46875 C 1.375 -13.65625 2.351562 -16.234375 4.3125 -18.203125 C 6.28125 -20.179688 8.832031 -21.171875 11.96875 -21.171875 Z M 11.96875 -21.171875 "/></g></g></g><g fill="#ffffff" fill-opacity="1"><g transform="translate(352.181719, 846.57654)"><g><path d="M 22.4375 -21.015625 L 22.4375 0 L 17.890625 0 L 17.890625 -4.109375 C 16.523438 -1.316406 14.023438 0.101562 10.390625 0.15625 C 7.992188 0.15625 6.109375 -0.566406 4.734375 -2.015625 C 3.367188 -3.460938 2.6875 -5.4375 2.6875 -7.9375 L 2.6875 -21.015625 L 7.234375 -21.015625 L 7.234375 -9.203125 C 7.234375 -7.617188 7.664062 -6.375 8.53125 -5.46875 C 9.394531 -4.5625 10.59375 -4.109375 12.125 -4.109375 C 13.882812 -4.128906 15.285156 -4.753906 16.328125 -5.984375 C 17.367188 -7.210938 17.890625 -8.773438 17.890625 -10.671875 L 17.890625 -21.015625 Z M 22.4375 -21.015625 "/></g></g></g><g fill="#ffffff" fill-opacity="1"><g transform="translate(376.07895, 846.57654)"><g><path d="M 12.015625 -21.171875 C 15.617188 -21.171875 18.226562 -20.082031 19.84375 -17.90625 C 21.46875 -15.738281 22.132812 -12.691406 21.84375 -8.765625 L 5.96875 -8.765625 C 6.332031 -7.128906 7.09375 -5.84375 8.25 -4.90625 C 9.414062 -3.976562 10.828125 -3.515625 12.484375 -3.515625 C 14.847656 -3.515625 16.820312 -4.332031 18.40625 -5.96875 L 20.8125 -3.390625 C 18.65625 -1.023438 15.757812 0.15625 12.125 0.15625 C 8.882812 0.15625 6.28125 -0.820312 4.3125 -2.78125 C 2.351562 -4.75 1.375 -7.3125 1.375 -10.46875 C 1.375 -13.625 2.363281 -16.1875 4.34375 -18.15625 C 6.320312 -20.132812 8.878906 -21.140625 12.015625 -21.171875 Z M 5.890625 -12.09375 L 17.890625 -12.09375 C 17.816406 -13.769531 17.25 -15.09375 16.1875 -16.0625 C 15.132812 -17.039062 13.753906 -17.53125 12.046875 -17.53125 C 10.390625 -17.53125 9.015625 -17.039062 7.921875 -16.0625 C 6.828125 -15.09375 6.148438 -13.769531 5.890625 -12.09375 Z M 5.890625 -12.09375 "/></g></g></g><g fill="#ffffff" fill-opacity="1"><g transform="translate(397.408654, 846.57654)"><g><path d="M 15.640625 -21.171875 C 18.085938 -21.171875 20.003906 -20.453125 21.390625 -19.015625 C 22.773438 -17.578125 23.46875 -15.597656 23.46875 -13.078125 L 23.46875 0 L 18.921875 0 L 18.921875 -11.8125 C 18.921875 -13.394531 18.472656 -14.640625 17.578125 -15.546875 C 16.679688 -16.453125 15.441406 -16.90625 13.859375 -16.90625 C 12.179688 -16.875 10.804688 -16.332031 9.734375 -15.28125 C 8.671875 -14.226562 8.0625 -12.859375 7.90625 -11.171875 L 7.90625 0 L 3.359375 0 L 3.359375 -21.015625 L 7.90625 -21.015625 L 7.90625 -16.984375 C 9.320312 -19.773438 11.898438 -21.171875 15.640625 -21.171875 Z M 15.640625 -21.171875 "/></g></g></g><g fill="#ffffff" fill-opacity="1"><g transform="translate(421.700865, 846.57654)"><g><path d="M 14.09375 -4.8125 L 15.25 -1.34375 C 13.507812 -0.3125 11.78125 0.203125 10.0625 0.203125 C 8.351562 0.203125 6.945312 -0.3125 5.84375 -1.34375 C 4.738281 -2.375 4.1875 -3.898438 4.1875 -5.921875 L 4.1875 -16.828125 L 1.21875 -16.828125 L 1.21875 -20.21875 L 4.1875 -20.21875 L 4.1875 -25.984375 L 8.6875 -25.984375 L 8.6875 -20.21875 L 14.890625 -20.21875 L 14.890625 -16.828125 L 8.6875 -16.828125 L 8.6875 -6.75 C 8.6875 -5.695312 8.867188 -4.957031 9.234375 -4.53125 C 9.609375 -4.113281 10.175781 -3.90625 10.9375 -3.90625 C 11.78125 -3.90625 12.832031 -4.207031 14.09375 -4.8125 Z M 14.09375 -4.8125 "/></g></g></g><g fill="#ffffff" fill-opacity="1"><g transform="translate(435.880957, 846.57654)"><g><path d="M 12.359375 -21.171875 C 15.597656 -21.171875 18.234375 -20.1875 20.265625 -18.21875 C 22.296875 -16.257812 23.3125 -13.6875 23.3125 -10.5 C 23.3125 -7.34375 22.296875 -4.773438 20.265625 -2.796875 C 18.234375 -0.828125 15.597656 0.15625 12.359375 0.15625 C 9.097656 0.15625 6.453125 -0.828125 4.421875 -2.796875 C 2.390625 -4.773438 1.375 -7.34375 1.375 -10.5 C 1.375 -13.6875 2.390625 -16.257812 4.421875 -18.21875 C 6.453125 -20.1875 9.097656 -21.171875 12.359375 -21.171875 Z M 12.359375 -17.265625 C 10.460938 -17.265625 8.914062 -16.628906 7.71875 -15.359375 C 6.519531 -14.097656 5.921875 -12.46875 5.921875 -10.46875 C 5.921875 -8.4375 6.519531 -6.789062 7.71875 -5.53125 C 8.914062 -4.269531 10.460938 -3.640625 12.359375 -3.640625 C 14.253906 -3.640625 15.796875 -4.269531 16.984375 -5.53125 C 18.171875 -6.789062 18.765625 -8.4375 18.765625 -10.46875 C 18.765625 -12.46875 18.164062 -14.097656 16.96875 -15.359375 C 15.769531 -16.628906 14.234375 -17.265625 12.359375 -17.265625 Z M 12.359375 -17.265625 "/></g></g></g><g fill="#ffffff" fill-opacity="1"><g transform="translate(458.672166, 846.57654)"><g/></g></g><g fill="#ffffff" fill-opacity="1"><g transform="translate(466.966687, 846.57654)"><g><path d="M 12.015625 -21.171875 C 15.617188 -21.171875 18.226562 -20.082031 19.84375 -17.90625 C 21.46875 -15.738281 22.132812 -12.691406 21.84375 -8.765625 L 5.96875 -8.765625 C 6.332031 -7.128906 7.09375 -5.84375 8.25 -4.90625 C 9.414062 -3.976562 10.828125 -3.515625 12.484375 -3.515625 C 14.847656 -3.515625 16.820312 -4.332031 18.40625 -5.96875 L 20.8125 -3.390625 C 18.65625 -1.023438 15.757812 0.15625 12.125 0.15625 C 8.882812 0.15625 6.28125 -0.820312 4.3125 -2.78125 C 2.351562 -4.75 1.375 -7.3125 1.375 -10.46875 C 1.375 -13.625 2.363281 -16.1875 4.34375 -18.15625 C 6.320312 -20.132812 8.878906 -21.140625 12.015625 -21.171875 Z M 5.890625 -12.09375 L 17.890625 -12.09375 C 17.816406 -13.769531 17.25 -15.09375 16.1875 -16.0625 C 15.132812 -17.039062 13.753906 -17.53125 12.046875 -17.53125 C 10.390625 -17.53125 9.015625 -17.039062 7.921875 -16.0625 C 6.828125 -15.09375 6.148438 -13.769531 5.890625 -12.09375 Z M 5.890625 -12.09375 "/></g></g></g><g fill="#ffffff" fill-opacity="1"><g transform="translate(488.296374, 846.57654)"><g><path d="M 15.640625 -21.171875 C 18.085938 -21.171875 20.003906 -20.453125 21.390625 -19.015625 C 22.773438 -17.578125 23.46875 -15.597656 23.46875 -13.078125 L 23.46875 0 L 18.921875 0 L 18.921875 -11.8125 C 18.921875 -13.394531 18.472656 -14.640625 17.578125 -15.546875 C 16.679688 -16.453125 15.441406 -16.90625 13.859375 -16.90625 C 12.179688 -16.875 10.804688 -16.332031 9.734375 -15.28125 C 8.671875 -14.226562 8.0625 -12.859375 7.90625 -11.171875 L 7.90625 0 L 3.359375 0 L 3.359375 -21.015625 L 7.90625 -21.015625 L 7.90625 -16.984375 C 9.320312 -19.773438 11.898438 -21.171875 15.640625 -21.171875 Z M 15.640625 -21.171875 "/></g></g></g><g fill="#ffffff" fill-opacity="1"><g transform="translate(512.588585, 846.57654)"><g/></g></g><g fill="#ffffff" fill-opacity="1"><g transform="translate(520.883105, 846.57654)"><g><path d="M 12.015625 -21.171875 C 15.617188 -21.171875 18.226562 -20.082031 19.84375 -17.90625 C 21.46875 -15.738281 22.132812 -12.691406 21.84375 -8.765625 L 5.96875 -8.765625 C 6.332031 -7.128906 7.09375 -5.84375 8.25 -4.90625 C 9.414062 -3.976562 10.828125 -3.515625 12.484375 -3.515625 C 14.847656 -3.515625 16.820312 -4.332031 18.40625 -5.96875 L 20.8125 -3.390625 C 18.65625 -1.023438 15.757812 0.15625 12.125 0.15625 C 8.882812 0.15625 6.28125 -0.820312 4.3125 -2.78125 C 2.351562 -4.75 1.375 -7.3125 1.375 -10.46875 C 1.375 -13.625 2.363281 -16.1875 4.34375 -18.15625 C 6.320312 -20.132812 8.878906 -21.140625 12.015625 -21.171875 Z M 5.890625 -12.09375 L 17.890625 -12.09375 C 17.816406 -13.769531 17.25 -15.09375 16.1875 -16.0625 C 15.132812 -17.039062 13.753906 -17.53125 12.046875 -17.53125 C 10.390625 -17.53125 9.015625 -17.039062 7.921875 -16.0625 C 6.828125 -15.09375 6.148438 -13.769531 5.890625 -12.09375 Z M 5.890625 -12.09375 "/></g></g></g><g fill="#ffffff" fill-opacity="1"><g transform="translate(542.212792, 846.57654)"><g><path d="M 8.09375 0 L 3.5625 0 L 3.5625 -29.3125 L 8.09375 -29.3125 Z M 8.09375 0 "/></g></g></g><g fill="#ffffff" fill-opacity="1"><g transform="translate(551.968836, 846.57654)"><g/></g></g><g fill="#ffffff" fill-opacity="1"><g transform="translate(560.263357, 846.57654)"><g><path d="M 9.640625 -21.21875 C 12.535156 -21.21875 14.984375 -20.503906 16.984375 -19.078125 L 15.328125 -15.71875 C 13.328125 -16.957031 11.3125 -17.578125 9.28125 -17.578125 C 7.226562 -17.578125 6.203125 -16.878906 6.203125 -15.484375 C 6.203125 -14.796875 6.582031 -14.226562 7.34375 -13.78125 C 8.113281 -13.332031 9.039062 -12.957031 10.125 -12.65625 C 11.21875 -12.351562 12.3125 -12 13.40625 -11.59375 C 14.5 -11.1875 15.425781 -10.519531 16.1875 -9.59375 C 16.957031 -8.675781 17.34375 -7.503906 17.34375 -6.078125 C 17.34375 -4.054688 16.570312 -2.507812 15.03125 -1.4375 C 13.488281 -0.375 11.570312 0.15625 9.28125 0.15625 C 7.695312 0.15625 6.148438 -0.0976562 4.640625 -0.609375 C 3.128906 -1.117188 1.859375 -1.835938 0.828125 -2.765625 L 2.453125 -6 C 3.347656 -5.207031 4.445312 -4.570312 5.75 -4.09375 C 7.050781 -3.625 8.296875 -3.390625 9.484375 -3.390625 C 10.503906 -3.390625 11.332031 -3.570312 11.96875 -3.9375 C 12.601562 -4.3125 12.921875 -4.882812 12.921875 -5.65625 C 12.921875 -6.4375 12.535156 -7.0625 11.765625 -7.53125 C 11.003906 -8.007812 10.082031 -8.394531 9 -8.6875 C 7.925781 -8.976562 6.847656 -9.320312 5.765625 -9.71875 C 4.679688 -10.113281 3.765625 -10.765625 3.015625 -11.671875 C 2.265625 -12.578125 1.890625 -13.726562 1.890625 -15.125 C 1.890625 -17.125 2.632812 -18.640625 4.125 -19.671875 C 5.613281 -20.703125 7.453125 -21.21875 9.640625 -21.21875 Z M 9.640625 -21.21875 "/></g></g></g><g fill="#ffffff" fill-opacity="1"><g transform="translate(576.931982, 846.57654)"><g><path d="M 3.71875 -29.015625 C 4.21875 -29.523438 4.847656 -29.78125 5.609375 -29.78125 C 6.367188 -29.78125 7 -29.523438 7.5 -29.015625 C 8 -28.503906 8.25 -27.835938 8.25 -27.015625 C 8.25 -26.222656 8 -25.570312 7.5 -25.0625 C 7 -24.550781 6.367188 -24.296875 5.609375 -24.296875 C 4.847656 -24.296875 4.21875 -24.550781 3.71875 -25.0625 C 3.21875 -25.570312 2.96875 -26.222656 2.96875 -27.015625 C 2.96875 -27.835938 3.21875 -28.503906 3.71875 -29.015625 Z M 7.859375 0 L 3.359375 0 L 3.359375 -21.015625 L 7.859375 -21.015625 Z M 7.859375 0 "/></g></g></g><g fill="#ffffff" fill-opacity="1"><g transform="translate(586.253548, 846.57654)"><g><path d="M 14.09375 -4.8125 L 15.25 -1.34375 C 13.507812 -0.3125 11.78125 0.203125 10.0625 0.203125 C 8.351562 0.203125 6.945312 -0.3125 5.84375 -1.34375 C 4.738281 -2.375 4.1875 -3.898438 4.1875 -5.921875 L 4.1875 -16.828125 L 1.21875 -16.828125 L 1.21875 -20.21875 L 4.1875 -20.21875 L 4.1875 -25.984375 L 8.6875 -25.984375 L 8.6875 -20.21875 L 14.890625 -20.21875 L 14.890625 -16.828125 L 8.6875 -16.828125 L 8.6875 -6.75 C 8.6875 -5.695312 8.867188 -4.957031 9.234375 -4.53125 C 9.609375 -4.113281 10.175781 -3.90625 10.9375 -3.90625 C 11.78125 -3.90625 12.832031 -4.207031 14.09375 -4.8125 Z M 14.09375 -4.8125 "/></g></g></g><g fill="#ffffff" fill-opacity="1"><g transform="translate(600.43364, 846.57654)"><g><path d="M 3.71875 -29.015625 C 4.21875 -29.523438 4.847656 -29.78125 5.609375 -29.78125 C 6.367188 -29.78125 7 -29.523438 7.5 -29.015625 C 8 -28.503906 8.25 -27.835938 8.25 -27.015625 C 8.25 -26.222656 8 -25.570312 7.5 -25.0625 C 7 -24.550781 6.367188 -24.296875 5.609375 -24.296875 C 4.847656 -24.296875 4.21875 -24.550781 3.71875 -25.0625 C 3.21875 -25.570312 2.96875 -26.222656 2.96875 -27.015625 C 2.96875 -27.835938 3.21875 -28.503906 3.71875 -29.015625 Z M 7.859375 0 L 3.359375 0 L 3.359375 -21.015625 L 7.859375 -21.015625 Z M 7.859375 0 "/></g></g></g><g fill="#ffffff" fill-opacity="1"><g transform="translate(609.755206, 846.57654)"><g><path d="M 12.359375 -21.171875 C 15.597656 -21.171875 18.234375 -20.1875 20.265625 -18.21875 C 22.296875 -16.257812 23.3125 -13.6875 23.3125 -10.5 C 23.3125 -7.34375 22.296875 -4.773438 20.265625 -2.796875 C 18.234375 -0.828125 15.597656 0.15625 12.359375 0.15625 C 9.097656 0.15625 6.453125 -0.828125 4.421875 -2.796875 C 2.390625 -4.773438 1.375 -7.34375 1.375 -10.5 C 1.375 -13.6875 2.390625 -16.257812 4.421875 -18.21875 C 6.453125 -20.1875 9.097656 -21.171875 12.359375 -21.171875 Z M 12.359375 -17.265625 C 10.460938 -17.265625 8.914062 -16.628906 7.71875 -15.359375 C 6.519531 -14.097656 5.921875 -12.46875 5.921875 -10.46875 C 5.921875 -8.4375 6.519531 -6.789062 7.71875 -5.53125 C 8.914062 -4.269531 10.460938 -3.640625 12.359375 -3.640625 C 14.253906 -3.640625 15.796875 -4.269531 16.984375 -5.53125 C 18.171875 -6.789062 18.765625 -8.4375 18.765625 -10.46875 C 18.765625 -12.46875 18.164062 -14.097656 16.96875 -15.359375 C 15.769531 -16.628906 14.234375 -17.265625 12.359375 -17.265625 Z M 12.359375 -17.265625 "/></g></g></g><g fill="#ffffff" fill-opacity="1"><g transform="translate(122.53213, 901.285879)"><g><path d="M 27.8125 0 L 23.109375 0 L 17.78125 -15.5625 L 12.4375 0 L 7.78125 0 L 0.046875 -21.015625 L 4.703125 -21.015625 L 10.15625 -4.5 L 15.4375 -21.015625 L 20.140625 -21.015625 L 25.484375 -4.5 L 30.84375 -21.015625 L 35.46875 -21.015625 Z M 27.8125 0 "/></g></g></g><g fill="#ffffff" fill-opacity="1"><g transform="translate(155.909462, 901.285879)"><g><path d="M 12.015625 -21.171875 C 15.617188 -21.171875 18.226562 -20.082031 19.84375 -17.90625 C 21.46875 -15.738281 22.132812 -12.691406 21.84375 -8.765625 L 5.96875 -8.765625 C 6.332031 -7.128906 7.09375 -5.84375 8.25 -4.90625 C 9.414062 -3.976562 10.828125 -3.515625 12.484375 -3.515625 C 14.847656 -3.515625 16.820312 -4.332031 18.40625 -5.96875 L 20.8125 -3.390625 C 18.65625 -1.023438 15.757812 0.15625 12.125 0.15625 C 8.882812 0.15625 6.28125 -0.820312 4.3125 -2.78125 C 2.351562 -4.75 1.375 -7.3125 1.375 -10.46875 C 1.375 -13.625 2.363281 -16.1875 4.34375 -18.15625 C 6.320312 -20.132812 8.878906 -21.140625 12.015625 -21.171875 Z M 5.890625 -12.09375 L 17.890625 -12.09375 C 17.816406 -13.769531 17.25 -15.09375 16.1875 -16.0625 C 15.132812 -17.039062 13.753906 -17.53125 12.046875 -17.53125 C 10.390625 -17.53125 9.015625 -17.039062 7.921875 -16.0625 C 6.828125 -15.09375 6.148438 -13.769531 5.890625 -12.09375 Z M 5.890625 -12.09375 "/></g></g></g><g fill="#ffffff" fill-opacity="1"><g transform="translate(177.239159, 901.285879)"><g><path d="M 15.4375 -21.171875 C 18.414062 -21.171875 20.832031 -20.175781 22.6875 -18.1875 C 24.550781 -16.195312 25.484375 -13.609375 25.484375 -10.421875 C 25.484375 -7.265625 24.570312 -4.710938 22.75 -2.765625 C 20.9375 -0.816406 18.53125 0.15625 15.53125 0.15625 C 12.15625 0.15625 9.675781 -1.109375 8.09375 -3.640625 L 8.09375 0 L 3.5625 0 L 3.5625 -29.3125 L 8.09375 -29.3125 L 8.09375 -17.375 C 9.675781 -19.90625 12.125 -21.171875 15.4375 -21.171875 Z M 9.890625 -5.625 C 11.085938 -4.351562 12.617188 -3.71875 14.484375 -3.71875 C 16.359375 -3.71875 17.894531 -4.351562 19.09375 -5.625 C 20.289062 -6.90625 20.890625 -8.5625 20.890625 -10.59375 C 20.890625 -12.5625 20.289062 -14.179688 19.09375 -15.453125 C 17.894531 -16.734375 16.359375 -17.375 14.484375 -17.375 C 12.617188 -17.375 11.085938 -16.734375 9.890625 -15.453125 C 8.691406 -14.179688 8.09375 -12.5625 8.09375 -10.59375 C 8.09375 -8.5625 8.691406 -6.90625 9.890625 -5.625 Z M 9.890625 -5.625 "/></g></g></g><g fill="#ffffff" fill-opacity="1"><g transform="translate(202.202892, 901.285879)"><g><path d="M 4.3125 -4.78125 C 4.96875 -4.78125 5.53125 -4.546875 6 -4.078125 C 6.476562 -3.617188 6.71875 -3.007812 6.71875 -2.25 C 6.71875 -1.539062 6.476562 -0.84375 6 -0.15625 L 3.75 3.234375 L 1.421875 3.234375 L 2.921875 -0.203125 C 2.210938 -0.671875 1.859375 -1.351562 1.859375 -2.25 C 1.859375 -2.988281 2.085938 -3.59375 2.546875 -4.0625 C 3.003906 -4.539062 3.59375 -4.78125 4.3125 -4.78125 Z M 4.3125 -4.78125 "/></g></g></g><g fill="#ffffff" fill-opacity="1"><g transform="translate(208.759406, 901.285879)"><g/></g></g><g fill="#ffffff" fill-opacity="1"><g transform="translate(217.053935, 901.285879)"><g><path d="M 15.4375 -21.171875 C 18.414062 -21.171875 20.832031 -20.175781 22.6875 -18.1875 C 24.550781 -16.195312 25.484375 -13.609375 25.484375 -10.421875 C 25.484375 -7.265625 24.570312 -4.710938 22.75 -2.765625 C 20.9375 -0.816406 18.53125 0.15625 15.53125 0.15625 C 12.15625 0.15625 9.675781 -1.109375 8.09375 -3.640625 L 8.09375 7.65625 L 3.5625 7.65625 L 3.5625 -21.015625 L 8.09375 -21.015625 L 8.09375 -17.375 C 9.675781 -19.90625 12.125 -21.171875 15.4375 -21.171875 Z M 9.890625 -5.625 C 11.085938 -4.351562 12.617188 -3.71875 14.484375 -3.71875 C 16.359375 -3.71875 17.894531 -4.351562 19.09375 -5.625 C 20.289062 -6.90625 20.890625 -8.5625 20.890625 -10.59375 C 20.890625 -12.5625 20.289062 -14.179688 19.09375 -15.453125 C 17.894531 -16.734375 16.359375 -17.375 14.484375 -17.375 C 12.617188 -17.375 11.085938 -16.734375 9.890625 -15.453125 C 8.691406 -14.179688 8.09375 -12.5625 8.09375 -10.59375 C 8.09375 -8.5625 8.691406 -6.90625 9.890625 -5.625 Z M 9.890625 -5.625 "/></g></g></g><g fill="#ffffff" fill-opacity="1"><g transform="translate(242.017664, 901.285879)"><g><path d="M 12.015625 -21.171875 C 15.617188 -21.171875 18.226562 -20.082031 19.84375 -17.90625 C 21.46875 -15.738281 22.132812 -12.691406 21.84375 -8.765625 L 5.96875 -8.765625 C 6.332031 -7.128906 7.09375 -5.84375 8.25 -4.90625 C 9.414062 -3.976562 10.828125 -3.515625 12.484375 -3.515625 C 14.847656 -3.515625 16.820312 -4.332031 18.40625 -5.96875 L 20.8125 -3.390625 C 18.65625 -1.023438 15.757812 0.15625 12.125 0.15625 C 8.882812 0.15625 6.28125 -0.820312 4.3125 -2.78125 C 2.351562 -4.75 1.375 -7.3125 1.375 -10.46875 C 1.375 -13.625 2.363281 -16.1875 4.34375 -18.15625 C 6.320312 -20.132812 8.878906 -21.140625 12.015625 -21.171875 Z M 5.890625 -12.09375 L 17.890625 -12.09375 C 17.816406 -13.769531 17.25 -15.09375 16.1875 -16.0625 C 15.132812 -17.039062 13.753906 -17.53125 12.046875 -17.53125 C 10.390625 -17.53125 9.015625 -17.039062 7.921875 -16.0625 C 6.828125 -15.09375 6.148438 -13.769531 5.890625 -12.09375 Z M 5.890625 -12.09375 "/></g></g></g><g fill="#ffffff" fill-opacity="1"><g transform="translate(263.347359, 901.285879)"><g><path d="M 7.90625 -21.015625 L 7.90625 -16.828125 C 9.351562 -19.722656 11.773438 -21.171875 15.171875 -21.171875 L 15.171875 -16.828125 C 13.085938 -16.929688 11.398438 -16.441406 10.109375 -15.359375 C 8.816406 -14.285156 8.082031 -12.828125 7.90625 -10.984375 L 7.90625 0 L 3.359375 0 L 3.359375 -21.015625 Z M 7.90625 -21.015625 "/></g></g></g><g fill="#ffffff" fill-opacity="1"><g transform="translate(277.013963, 901.285879)"><g><path d="M 12.359375 -21.171875 C 15.597656 -21.171875 18.234375 -20.1875 20.265625 -18.21875 C 22.296875 -16.257812 23.3125 -13.6875 23.3125 -10.5 C 23.3125 -7.34375 22.296875 -4.773438 20.265625 -2.796875 C 18.234375 -0.828125 15.597656 0.15625 12.359375 0.15625 C 9.097656 0.15625 6.453125 -0.828125 4.421875 -2.796875 C 2.390625 -4.773438 1.375 -7.34375 1.375 -10.5 C 1.375 -13.6875 2.390625 -16.257812 4.421875 -18.21875 C 6.453125 -20.1875 9.097656 -21.171875 12.359375 -21.171875 Z M 12.359375 -17.265625 C 10.460938 -17.265625 8.914062 -16.628906 7.71875 -15.359375 C 6.519531 -14.097656 5.921875 -12.46875 5.921875 -10.46875 C 5.921875 -8.4375 6.519531 -6.789062 7.71875 -5.53125 C 8.914062 -4.269531 10.460938 -3.640625 12.359375 -3.640625 C 14.253906 -3.640625 15.796875 -4.269531 16.984375 -5.53125 C 18.171875 -6.789062 18.765625 -8.4375 18.765625 -10.46875 C 18.765625 -12.46875 18.164062 -14.097656 16.96875 -15.359375 C 15.769531 -16.628906 14.234375 -17.265625 12.359375 -17.265625 Z M 12.359375 -17.265625 "/></g></g></g><g fill="#ffffff" fill-opacity="1"><g transform="translate(299.805172, 901.285879)"><g/></g></g><g fill="#ffffff" fill-opacity="1"><g transform="translate(308.09971, 901.285879)"><g><path d="M 9.640625 -21.21875 C 12.535156 -21.21875 14.984375 -20.503906 16.984375 -19.078125 L 15.328125 -15.71875 C 13.328125 -16.957031 11.3125 -17.578125 9.28125 -17.578125 C 7.226562 -17.578125 6.203125 -16.878906 6.203125 -15.484375 C 6.203125 -14.796875 6.582031 -14.226562 7.34375 -13.78125 C 8.113281 -13.332031 9.039062 -12.957031 10.125 -12.65625 C 11.21875 -12.351562 12.3125 -12 13.40625 -11.59375 C 14.5 -11.1875 15.425781 -10.519531 16.1875 -9.59375 C 16.957031 -8.675781 17.34375 -7.503906 17.34375 -6.078125 C 17.34375 -4.054688 16.570312 -2.507812 15.03125 -1.4375 C 13.488281 -0.375 11.570312 0.15625 9.28125 0.15625 C 7.695312 0.15625 6.148438 -0.0976562 4.640625 -0.609375 C 3.128906 -1.117188 1.859375 -1.835938 0.828125 -2.765625 L 2.453125 -6 C 3.347656 -5.207031 4.445312 -4.570312 5.75 -4.09375 C 7.050781 -3.625 8.296875 -3.390625 9.484375 -3.390625 C 10.503906 -3.390625 11.332031 -3.570312 11.96875 -3.9375 C 12.601562 -4.3125 12.921875 -4.882812 12.921875 -5.65625 C 12.921875 -6.4375 12.535156 -7.0625 11.765625 -7.53125 C 11.003906 -8.007812 10.082031 -8.394531 9 -8.6875 C 7.925781 -8.976562 6.847656 -9.320312 5.765625 -9.71875 C 4.679688 -10.113281 3.765625 -10.765625 3.015625 -11.671875 C 2.265625 -12.578125 1.890625 -13.726562 1.890625 -15.125 C 1.890625 -17.125 2.632812 -18.640625 4.125 -19.671875 C 5.613281 -20.703125 7.453125 -21.21875 9.640625 -21.21875 Z M 9.640625 -21.21875 "/></g></g></g><g fill="#ffffff" fill-opacity="1"><g transform="translate(324.768353, 901.285879)"><g><path d="M 12.359375 -21.171875 C 15.597656 -21.171875 18.234375 -20.1875 20.265625 -18.21875 C 22.296875 -16.257812 23.3125 -13.6875 23.3125 -10.5 C 23.3125 -7.34375 22.296875 -4.773438 20.265625 -2.796875 C 18.234375 -0.828125 15.597656 0.15625 12.359375 0.15625 C 9.097656 0.15625 6.453125 -0.828125 4.421875 -2.796875 C 2.390625 -4.773438 1.375 -7.34375 1.375 -10.5 C 1.375 -13.6875 2.390625 -16.257812 4.421875 -18.21875 C 6.453125 -20.1875 9.097656 -21.171875 12.359375 -21.171875 Z M 12.359375 -17.265625 C 10.460938 -17.265625 8.914062 -16.628906 7.71875 -15.359375 C 6.519531 -14.097656 5.921875 -12.46875 5.921875 -10.46875 C 5.921875 -8.4375 6.519531 -6.789062 7.71875 -5.53125 C 8.914062 -4.269531 10.460938 -3.640625 12.359375 -3.640625 C 14.253906 -3.640625 15.796875 -4.269531 16.984375 -5.53125 C 18.171875 -6.789062 18.765625 -8.4375 18.765625 -10.46875 C 18.765625 -12.46875 18.164062 -14.097656 16.96875 -15.359375 C 15.769531 -16.628906 14.234375 -17.265625 12.359375 -17.265625 Z M 12.359375 -17.265625 "/></g></g></g><g fill="#ffffff" fill-opacity="1"><g transform="translate(347.559562, 901.285879)"><g><path d="M 8.09375 0 L 3.5625 0 L 3.5625 -29.3125 L 8.09375 -29.3125 Z M 8.09375 0 "/></g></g></g><g fill="#ffffff" fill-opacity="1"><g transform="translate(357.315623, 901.285879)"><g><path d="M 12.359375 -21.171875 C 15.597656 -21.171875 18.234375 -20.1875 20.265625 -18.21875 C 22.296875 -16.257812 23.3125 -13.6875 23.3125 -10.5 C 23.3125 -7.34375 22.296875 -4.773438 20.265625 -2.796875 C 18.234375 -0.828125 15.597656 0.15625 12.359375 0.15625 C 9.097656 0.15625 6.453125 -0.828125 4.421875 -2.796875 C 2.390625 -4.773438 1.375 -7.34375 1.375 -10.5 C 1.375 -13.6875 2.390625 -16.257812 4.421875 -18.21875 C 6.453125 -20.1875 9.097656 -21.171875 12.359375 -21.171875 Z M 12.359375 -17.265625 C 10.460938 -17.265625 8.914062 -16.628906 7.71875 -15.359375 C 6.519531 -14.097656 5.921875 -12.46875 5.921875 -10.46875 C 5.921875 -8.4375 6.519531 -6.789062 7.71875 -5.53125 C 8.914062 -4.269531 10.460938 -3.640625 12.359375 -3.640625 C 14.253906 -3.640625 15.796875 -4.269531 16.984375 -5.53125 C 18.171875 -6.789062 18.765625 -8.4375 18.765625 -10.46875 C 18.765625 -12.46875 18.164062 -14.097656 16.96875 -15.359375 C 15.769531 -16.628906 14.234375 -17.265625 12.359375 -17.265625 Z M 12.359375 -17.265625 "/></g></g></g><g fill="#ffffff" fill-opacity="1"><g transform="translate(380.106832, 901.285879)"><g/></g></g><g fill="#ffffff" fill-opacity="1"><g transform="translate(388.40137, 901.285879)"><g><path d="M 15.875 -21.171875 C 18.320312 -21.171875 20.238281 -20.453125 21.625 -19.015625 C 23.007812 -17.578125 23.703125 -15.597656 23.703125 -13.078125 L 23.703125 0 L 19.15625 0 L 19.15625 -11.8125 C 19.15625 -13.394531 18.707031 -14.640625 17.8125 -15.546875 C 16.914062 -16.453125 15.675781 -16.90625 14.09375 -16.90625 C 12.257812 -16.875 10.800781 -16.242188 9.71875 -15.015625 C 8.632812 -13.796875 8.09375 -12.238281 8.09375 -10.34375 L 8.09375 0 L 3.5625 0 L 3.5625 -29.3125 L 8.09375 -29.3125 L 8.09375 -16.90625 C 9.539062 -19.75 12.132812 -21.171875 15.875 -21.171875 Z M 15.875 -21.171875 "/></g></g></g><g fill="#ffffff" fill-opacity="1"><g transform="translate(412.930612, 901.285879)"><g><path d="M 15.953125 0 L 15.953125 -2.5625 C 14.453125 -0.71875 12.132812 0.203125 9 0.203125 C 6.769531 0.203125 4.984375 -0.40625 3.640625 -1.625 C 2.296875 -2.851562 1.625 -4.414062 1.625 -6.3125 C 1.625 -8.238281 2.320312 -9.765625 3.71875 -10.890625 C 5.113281 -12.023438 7.0625 -12.609375 9.5625 -12.640625 L 15.921875 -12.640625 L 15.921875 -13.265625 C 15.921875 -14.609375 15.488281 -15.648438 14.625 -16.390625 C 13.769531 -17.128906 12.53125 -17.5 10.90625 -17.5 C 8.875 -17.5 6.804688 -16.785156 4.703125 -15.359375 L 2.84375 -18.53125 C 4.445312 -19.476562 5.882812 -20.15625 7.15625 -20.5625 C 8.4375 -20.96875 10.015625 -21.171875 11.890625 -21.171875 C 14.578125 -21.171875 16.65625 -20.519531 18.125 -19.21875 C 19.601562 -17.914062 20.351562 -16.101562 20.375 -13.78125 L 20.421875 0 Z M 9.953125 -3.390625 C 11.554688 -3.390625 12.914062 -3.765625 14.03125 -4.515625 C 15.15625 -5.273438 15.785156 -6.234375 15.921875 -7.390625 L 15.921875 -9.328125 L 10.234375 -9.328125 C 8.734375 -9.328125 7.632812 -9.109375 6.9375 -8.671875 C 6.238281 -8.234375 5.890625 -7.515625 5.890625 -6.515625 C 5.890625 -5.566406 6.25 -4.804688 6.96875 -4.234375 C 7.695312 -3.671875 8.691406 -3.390625 9.953125 -3.390625 Z M 9.953125 -3.390625 "/></g></g></g><g fill="#ffffff" fill-opacity="1"><g transform="translate(434.181306, 901.285879)"><g><path d="M 21.171875 -21.015625 L 11.609375 2.890625 C 10.316406 6.203125 8.039062 7.859375 4.78125 7.859375 C 2.957031 7.859375 1.335938 7.265625 -0.078125 6.078125 L 1.859375 2.5625 C 2.804688 3.25 3.710938 3.59375 4.578125 3.59375 C 6.003906 3.59375 7.070312 2.816406 7.78125 1.265625 L 8.5 -0.3125 L -0.203125 -21.015625 L 4.5 -21.015625 L 10.78125 -5.09375 L 16.625 -21.015625 Z M 21.171875 -21.015625 "/></g></g></g><g fill="#ffffff" fill-opacity="1"><g transform="translate(453.259472, 901.285879)"><g/></g></g><g fill="#ffffff" fill-opacity="1"><g transform="translate(461.553992, 901.285879)"><g><path d="M 11.375 -27.84375 C 14.007812 -27.84375 16.132812 -27.210938 17.75 -25.953125 C 19.375 -24.691406 20.1875 -23.003906 20.1875 -20.890625 C 20.1875 -18.472656 18.5 -15.445312 15.125 -11.8125 L 7.9375 -4.1875 L 21.453125 -4.1875 L 21.453125 0 L 1.78125 0 L 1.78125 -3.390625 L 11.96875 -14.34375 C 14.207031 -16.632812 15.328125 -18.59375 15.328125 -20.21875 C 15.328125 -21.332031 14.914062 -22.203125 14.09375 -22.828125 C 13.28125 -23.460938 12.148438 -23.78125 10.703125 -23.78125 C 8.203125 -23.78125 5.6875 -22.617188 3.15625 -20.296875 L 1.296875 -23.890625 C 4.535156 -26.523438 7.894531 -27.84375 11.375 -27.84375 Z M 11.375 -27.84375 "/></g></g></g><g fill="#ffffff" fill-opacity="1"><g transform="translate(482.883679, 901.285879)"><g><path d="M 13.671875 -27.765625 C 17.429688 -27.765625 20.328125 -26.5625 22.359375 -24.15625 C 24.390625 -21.75 25.40625 -18.304688 25.40625 -13.828125 C 25.40625 -9.347656 24.390625 -5.898438 22.359375 -3.484375 C 20.328125 -1.078125 17.429688 0.125 13.671875 0.125 C 9.878906 0.125 6.96875 -1.078125 4.9375 -3.484375 C 2.90625 -5.898438 1.890625 -9.347656 1.890625 -13.828125 C 1.890625 -18.304688 2.90625 -21.75 4.9375 -24.15625 C 6.96875 -26.5625 9.878906 -27.765625 13.671875 -27.765625 Z M 13.671875 -24.09375 C 9.003906 -24.09375 6.671875 -20.671875 6.671875 -13.828125 C 6.671875 -6.984375 9.003906 -3.5625 13.671875 -3.5625 C 18.304688 -3.5625 20.625 -6.984375 20.625 -13.828125 C 20.625 -20.671875 18.304688 -24.09375 13.671875 -24.09375 Z M 13.671875 -24.09375 "/></g></g></g><g fill="#ffffff" fill-opacity="1"><g transform="translate(508.281929, 901.285879)"><g><path d="M 13.671875 -27.765625 C 17.429688 -27.765625 20.328125 -26.5625 22.359375 -24.15625 C 24.390625 -21.75 25.40625 -18.304688 25.40625 -13.828125 C 25.40625 -9.347656 24.390625 -5.898438 22.359375 -3.484375 C 20.328125 -1.078125 17.429688 0.125 13.671875 0.125 C 9.878906 0.125 6.96875 -1.078125 4.9375 -3.484375 C 2.90625 -5.898438 1.890625 -9.347656 1.890625 -13.828125 C 1.890625 -18.304688 2.90625 -21.75 4.9375 -24.15625 C 6.96875 -26.5625 9.878906 -27.765625 13.671875 -27.765625 Z M 13.671875 -24.09375 C 9.003906 -24.09375 6.671875 -20.671875 6.671875 -13.828125 C 6.671875 -6.984375 9.003906 -3.5625 13.671875 -3.5625 C 18.304688 -3.5625 20.625 -6.984375 20.625 -13.828125 C 20.625 -20.671875 18.304688 -24.09375 13.671875 -24.09375 Z M 13.671875 -24.09375 "/></g></g></g><g fill="#ffffff" fill-opacity="1"><g transform="translate(122.53213, 955.995217)"><g><path d="M 11.96875 -21.171875 C 15.757812 -21.171875 18.65625 -20.023438 20.65625 -17.734375 L 18.171875 -14.8125 C 16.585938 -16.414062 14.585938 -17.207031 12.171875 -17.1875 C 10.347656 -17.1875 8.847656 -16.5625 7.671875 -15.3125 C 6.503906 -14.0625 5.921875 -12.445312 5.921875 -10.46875 C 5.921875 -8.488281 6.503906 -6.875 7.671875 -5.625 C 8.847656 -4.375 10.347656 -3.75 12.171875 -3.75 C 14.847656 -3.75 16.914062 -4.59375 18.375 -6.28125 L 20.890625 -3.75 C 18.921875 -1.144531 15.945312 0.15625 11.96875 0.15625 C 8.832031 0.15625 6.28125 -0.820312 4.3125 -2.78125 C 2.351562 -4.75 1.375 -7.3125 1.375 -10.46875 C 1.375 -13.65625 2.351562 -16.234375 4.3125 -18.203125 C 6.28125 -20.179688 8.832031 -21.171875 11.96875 -21.171875 Z M 11.96875 -21.171875 "/></g></g></g><g fill="#ffffff" fill-opacity="1"><g transform="translate(142.91381, 955.995217)"><g><path d="M 22.4375 -21.015625 L 22.4375 0 L 17.890625 0 L 17.890625 -4.109375 C 16.523438 -1.316406 14.023438 0.101562 10.390625 0.15625 C 7.992188 0.15625 6.109375 -0.566406 4.734375 -2.015625 C 3.367188 -3.460938 2.6875 -5.4375 2.6875 -7.9375 L 2.6875 -21.015625 L 7.234375 -21.015625 L 7.234375 -9.203125 C 7.234375 -7.617188 7.664062 -6.375 8.53125 -5.46875 C 9.394531 -4.5625 10.59375 -4.109375 12.125 -4.109375 C 13.882812 -4.128906 15.285156 -4.753906 16.328125 -5.984375 C 17.367188 -7.210938 17.890625 -8.773438 17.890625 -10.671875 L 17.890625 -21.015625 Z M 22.4375 -21.015625 "/></g></g></g><g fill="#ffffff" fill-opacity="1"><g transform="translate(166.811034, 955.995217)"><g><path d="M 15.4375 -21.171875 C 18.414062 -21.171875 20.832031 -20.175781 22.6875 -18.1875 C 24.550781 -16.195312 25.484375 -13.609375 25.484375 -10.421875 C 25.484375 -7.265625 24.570312 -4.710938 22.75 -2.765625 C 20.9375 -0.816406 18.53125 0.15625 15.53125 0.15625 C 12.15625 0.15625 9.675781 -1.109375 8.09375 -3.640625 L 8.09375 7.65625 L 3.5625 7.65625 L 3.5625 -21.015625 L 8.09375 -21.015625 L 8.09375 -17.375 C 9.675781 -19.90625 12.125 -21.171875 15.4375 -21.171875 Z M 9.890625 -5.625 C 11.085938 -4.351562 12.617188 -3.71875 14.484375 -3.71875 C 16.359375 -3.71875 17.894531 -4.351562 19.09375 -5.625 C 20.289062 -6.90625 20.890625 -8.5625 20.890625 -10.59375 C 20.890625 -12.5625 20.289062 -14.179688 19.09375 -15.453125 C 17.894531 -16.734375 16.359375 -17.375 14.484375 -17.375 C 12.617188 -17.375 11.085938 -16.734375 9.890625 -15.453125 C 8.691406 -14.179688 8.09375 -12.5625 8.09375 -10.59375 C 8.09375 -8.5625 8.691406 -6.90625 9.890625 -5.625 Z M 9.890625 -5.625 "/></g></g></g><g fill="#ffffff" fill-opacity="1"><g transform="translate(191.774767, 955.995217)"><g><path d="M 12.359375 -21.171875 C 15.597656 -21.171875 18.234375 -20.1875 20.265625 -18.21875 C 22.296875 -16.257812 23.3125 -13.6875 23.3125 -10.5 C 23.3125 -7.34375 22.296875 -4.773438 20.265625 -2.796875 C 18.234375 -0.828125 15.597656 0.15625 12.359375 0.15625 C 9.097656 0.15625 6.453125 -0.828125 4.421875 -2.796875 C 2.390625 -4.773438 1.375 -7.34375 1.375 -10.5 C 1.375 -13.6875 2.390625 -16.257812 4.421875 -18.21875 C 6.453125 -20.1875 9.097656 -21.171875 12.359375 -21.171875 Z M 12.359375 -17.265625 C 10.460938 -17.265625 8.914062 -16.628906 7.71875 -15.359375 C 6.519531 -14.097656 5.921875 -12.46875 5.921875 -10.46875 C 5.921875 -8.4375 6.519531 -6.789062 7.71875 -5.53125 C 8.914062 -4.269531 10.460938 -3.640625 12.359375 -3.640625 C 14.253906 -3.640625 15.796875 -4.269531 16.984375 -5.53125 C 18.171875 -6.789062 18.765625 -8.4375 18.765625 -10.46875 C 18.765625 -12.46875 18.164062 -14.097656 16.96875 -15.359375 C 15.769531 -16.628906 14.234375 -17.265625 12.359375 -17.265625 Z M 12.359375 -17.265625 "/></g></g></g><g fill="#ffffff" fill-opacity="1"><g transform="translate(214.565968, 955.995217)"><g><path d="M 15.640625 -21.171875 C 18.085938 -21.171875 20.003906 -20.453125 21.390625 -19.015625 C 22.773438 -17.578125 23.46875 -15.597656 23.46875 -13.078125 L 23.46875 0 L 18.921875 0 L 18.921875 -11.8125 C 18.921875 -13.394531 18.472656 -14.640625 17.578125 -15.546875 C 16.679688 -16.453125 15.441406 -16.90625 13.859375 -16.90625 C 12.179688 -16.875 10.804688 -16.332031 9.734375 -15.28125 C 8.671875 -14.226562 8.0625 -12.859375 7.90625 -11.171875 L 7.90625 0 L 3.359375 0 L 3.359375 -21.015625 L 7.90625 -21.015625 L 7.90625 -16.984375 C 9.320312 -19.773438 11.898438 -21.171875 15.640625 -21.171875 Z M 15.640625 -21.171875 "/></g></g></g><g fill="#ffffff" fill-opacity="1"><g transform="translate(238.858188, 955.995217)"><g><path d="M 12.015625 -21.171875 C 15.617188 -21.171875 18.226562 -20.082031 19.84375 -17.90625 C 21.46875 -15.738281 22.132812 -12.691406 21.84375 -8.765625 L 5.96875 -8.765625 C 6.332031 -7.128906 7.09375 -5.84375 8.25 -4.90625 C 9.414062 -3.976562 10.828125 -3.515625 12.484375 -3.515625 C 14.847656 -3.515625 16.820312 -4.332031 18.40625 -5.96875 L 20.8125 -3.390625 C 18.65625 -1.023438 15.757812 0.15625 12.125 0.15625 C 8.882812 0.15625 6.28125 -0.820312 4.3125 -2.78125 C 2.351562 -4.75 1.375 -7.3125 1.375 -10.46875 C 1.375 -13.625 2.363281 -16.1875 4.34375 -18.15625 C 6.320312 -20.132812 8.878906 -21.140625 12.015625 -21.171875 Z M 5.890625 -12.09375 L 17.890625 -12.09375 C 17.816406 -13.769531 17.25 -15.09375 16.1875 -16.0625 C 15.132812 -17.039062 13.753906 -17.53125 12.046875 -17.53125 C 10.390625 -17.53125 9.015625 -17.039062 7.921875 -16.0625 C 6.828125 -15.09375 6.148438 -13.769531 5.890625 -12.09375 Z M 5.890625 -12.09375 "/></g></g></g><g fill="#ffffff" fill-opacity="1"><g transform="translate(260.187883, 955.995217)"><g><path d="M 9.640625 -21.21875 C 12.535156 -21.21875 14.984375 -20.503906 16.984375 -19.078125 L 15.328125 -15.71875 C 13.328125 -16.957031 11.3125 -17.578125 9.28125 -17.578125 C 7.226562 -17.578125 6.203125 -16.878906 6.203125 -15.484375 C 6.203125 -14.796875 6.582031 -14.226562 7.34375 -13.78125 C 8.113281 -13.332031 9.039062 -12.957031 10.125 -12.65625 C 11.21875 -12.351562 12.3125 -12 13.40625 -11.59375 C 14.5 -11.1875 15.425781 -10.519531 16.1875 -9.59375 C 16.957031 -8.675781 17.34375 -7.503906 17.34375 -6.078125 C 17.34375 -4.054688 16.570312 -2.507812 15.03125 -1.4375 C 13.488281 -0.375 11.570312 0.15625 9.28125 0.15625 C 7.695312 0.15625 6.148438 -0.0976562 4.640625 -0.609375 C 3.128906 -1.117188 1.859375 -1.835938 0.828125 -2.765625 L 2.453125 -6 C 3.347656 -5.207031 4.445312 -4.570312 5.75 -4.09375 C 7.050781 -3.625 8.296875 -3.390625 9.484375 -3.390625 C 10.503906 -3.390625 11.332031 -3.570312 11.96875 -3.9375 C 12.601562 -4.3125 12.921875 -4.882812 12.921875 -5.65625 C 12.921875 -6.4375 12.535156 -7.0625 11.765625 -7.53125 C 11.003906 -8.007812 10.082031 -8.394531 9 -8.6875 C 7.925781 -8.976562 6.847656 -9.320312 5.765625 -9.71875 C 4.679688 -10.113281 3.765625 -10.765625 3.015625 -11.671875 C 2.265625 -12.578125 1.890625 -13.726562 1.890625 -15.125 C 1.890625 -17.125 2.632812 -18.640625 4.125 -19.671875 C 5.613281 -20.703125 7.453125 -21.21875 9.640625 -21.21875 Z M 9.640625 -21.21875 "/></g></g></g><g fill="#ffffff" fill-opacity="1"><g transform="translate(276.856517, 955.995217)"><g><path d="M 4.3125 -4.78125 C 4.96875 -4.78125 5.53125 -4.546875 6 -4.078125 C 6.476562 -3.617188 6.71875 -3.007812 6.71875 -2.25 C 6.71875 -1.539062 6.476562 -0.84375 6 -0.15625 L 3.75 3.234375 L 1.421875 3.234375 L 2.921875 -0.203125 C 2.210938 -0.671875 1.859375 -1.351562 1.859375 -2.25 C 1.859375 -2.988281 2.085938 -3.59375 2.546875 -4.0625 C 3.003906 -4.539062 3.59375 -4.78125 4.3125 -4.78125 Z M 4.3125 -4.78125 "/></g></g></g><g fill="#ffffff" fill-opacity="1"><g transform="translate(283.41304, 955.995217)"><g/></g></g><g fill="#ffffff" fill-opacity="1"><g transform="translate(291.707578, 955.995217)"><g><path d="M 12.015625 -21.171875 C 15.617188 -21.171875 18.226562 -20.082031 19.84375 -17.90625 C 21.46875 -15.738281 22.132812 -12.691406 21.84375 -8.765625 L 5.96875 -8.765625 C 6.332031 -7.128906 7.09375 -5.84375 8.25 -4.90625 C 9.414062 -3.976562 10.828125 -3.515625 12.484375 -3.515625 C 14.847656 -3.515625 16.820312 -4.332031 18.40625 -5.96875 L 20.8125 -3.390625 C 18.65625 -1.023438 15.757812 0.15625 12.125 0.15625 C 8.882812 0.15625 6.28125 -0.820312 4.3125 -2.78125 C 2.351562 -4.75 1.375 -7.3125 1.375 -10.46875 C 1.375 -13.625 2.363281 -16.1875 4.34375 -18.15625 C 6.320312 -20.132812 8.878906 -21.140625 12.015625 -21.171875 Z M 5.890625 -12.09375 L 17.890625 -12.09375 C 17.816406 -13.769531 17.25 -15.09375 16.1875 -16.0625 C 15.132812 -17.039062 13.753906 -17.53125 12.046875 -17.53125 C 10.390625 -17.53125 9.015625 -17.039062 7.921875 -16.0625 C 6.828125 -15.09375 6.148438 -13.769531 5.890625 -12.09375 Z M 5.890625 -12.09375 "/></g></g></g><g fill="#ffffff" fill-opacity="1"><g transform="translate(313.037282, 955.995217)"><g><path d="M 5.5625 -29.78125 C 6.382812 -29.78125 7.054688 -29.523438 7.578125 -29.015625 C 8.109375 -28.503906 8.375 -27.835938 8.375 -27.015625 C 8.375 -26.222656 8.109375 -25.5625 7.578125 -25.03125 C 7.054688 -24.507812 6.382812 -24.25 5.5625 -24.25 C 4.78125 -24.25 4.125 -24.507812 3.59375 -25.03125 C 3.0625 -25.5625 2.796875 -26.222656 2.796875 -27.015625 C 2.796875 -27.835938 3.0625 -28.503906 3.59375 -29.015625 C 4.125 -29.523438 4.78125 -29.78125 5.5625 -29.78125 Z M 7.828125 -21.015625 L 7.828125 0.59375 C 7.828125 2.9375 7.15625 4.734375 5.8125 5.984375 C 4.46875 7.234375 2.875 7.859375 1.03125 7.859375 C -0.601562 7.859375 -2.066406 7.382812 -3.359375 6.4375 L -1.859375 2.921875 C -0.960938 3.554688 -0.0664062 3.875 0.828125 3.875 C 1.566406 3.875 2.164062 3.632812 2.625 3.15625 C 3.082031 2.6875 3.3125 1.976562 3.3125 1.03125 L 3.3125 -21.015625 Z M 7.828125 -21.015625 "/></g></g></g><g fill="#ffffff" fill-opacity="1"><g transform="translate(322.477337, 955.995217)"><g><path d="M 12.015625 -21.171875 C 15.617188 -21.171875 18.226562 -20.082031 19.84375 -17.90625 C 21.46875 -15.738281 22.132812 -12.691406 21.84375 -8.765625 L 5.96875 -8.765625 C 6.332031 -7.128906 7.09375 -5.84375 8.25 -4.90625 C 9.414062 -3.976562 10.828125 -3.515625 12.484375 -3.515625 C 14.847656 -3.515625 16.820312 -4.332031 18.40625 -5.96875 L 20.8125 -3.390625 C 18.65625 -1.023438 15.757812 0.15625 12.125 0.15625 C 8.882812 0.15625 6.28125 -0.820312 4.3125 -2.78125 C 2.351562 -4.75 1.375 -7.3125 1.375 -10.46875 C 1.375 -13.625 2.363281 -16.1875 4.34375 -18.15625 C 6.320312 -20.132812 8.878906 -21.140625 12.015625 -21.171875 Z M 5.890625 -12.09375 L 17.890625 -12.09375 C 17.816406 -13.769531 17.25 -15.09375 16.1875 -16.0625 C 15.132812 -17.039062 13.753906 -17.53125 12.046875 -17.53125 C 10.390625 -17.53125 9.015625 -17.039062 7.921875 -16.0625 C 6.828125 -15.09375 6.148438 -13.769531 5.890625 -12.09375 Z M 5.890625 -12.09375 "/></g></g></g><g fill="#ffffff" fill-opacity="1"><g transform="translate(343.807041, 955.995217)"><g><path d="M 11.96875 -21.171875 C 15.757812 -21.171875 18.65625 -20.023438 20.65625 -17.734375 L 18.171875 -14.8125 C 16.585938 -16.414062 14.585938 -17.207031 12.171875 -17.1875 C 10.347656 -17.1875 8.847656 -16.5625 7.671875 -15.3125 C 6.503906 -14.0625 5.921875 -12.445312 5.921875 -10.46875 C 5.921875 -8.488281 6.503906 -6.875 7.671875 -5.625 C 8.847656 -4.375 10.347656 -3.75 12.171875 -3.75 C 14.847656 -3.75 16.914062 -4.59375 18.375 -6.28125 L 20.890625 -3.75 C 18.921875 -1.144531 15.945312 0.15625 11.96875 0.15625 C 8.832031 0.15625 6.28125 -0.820312 4.3125 -2.78125 C 2.351562 -4.75 1.375 -7.3125 1.375 -10.46875 C 1.375 -13.65625 2.351562 -16.234375 4.3125 -18.203125 C 6.28125 -20.179688 8.832031 -21.171875 11.96875 -21.171875 Z M 11.96875 -21.171875 "/></g></g></g><g fill="#ffffff" fill-opacity="1"><g transform="translate(364.188727, 955.995217)"><g><path d="M 22.4375 -21.015625 L 22.4375 0 L 17.890625 0 L 17.890625 -4.109375 C 16.523438 -1.316406 14.023438 0.101562 10.390625 0.15625 C 7.992188 0.15625 6.109375 -0.566406 4.734375 -2.015625 C 3.367188 -3.460938 2.6875 -5.4375 2.6875 -7.9375 L 2.6875 -21.015625 L 7.234375 -21.015625 L 7.234375 -9.203125 C 7.234375 -7.617188 7.664062 -6.375 8.53125 -5.46875 C 9.394531 -4.5625 10.59375 -4.109375 12.125 -4.109375 C 13.882812 -4.128906 15.285156 -4.753906 16.328125 -5.984375 C 17.367188 -7.210938 17.890625 -8.773438 17.890625 -10.671875 L 17.890625 -21.015625 Z M 22.4375 -21.015625 "/></g></g></g><g fill="#ffffff" fill-opacity="1"><g transform="translate(388.085958, 955.995217)"><g><path d="M 14.09375 -4.8125 L 15.25 -1.34375 C 13.507812 -0.3125 11.78125 0.203125 10.0625 0.203125 C 8.351562 0.203125 6.945312 -0.3125 5.84375 -1.34375 C 4.738281 -2.375 4.1875 -3.898438 4.1875 -5.921875 L 4.1875 -16.828125 L 1.21875 -16.828125 L 1.21875 -20.21875 L 4.1875 -20.21875 L 4.1875 -25.984375 L 8.6875 -25.984375 L 8.6875 -20.21875 L 14.890625 -20.21875 L 14.890625 -16.828125 L 8.6875 -16.828125 L 8.6875 -6.75 C 8.6875 -5.695312 8.867188 -4.957031 9.234375 -4.53125 C 9.609375 -4.113281 10.175781 -3.90625 10.9375 -3.90625 C 11.78125 -3.90625 12.832031 -4.207031 14.09375 -4.8125 Z M 14.09375 -4.8125 "/></g></g></g><g fill="#ffffff" fill-opacity="1"><g transform="translate(402.266067, 955.995217)"><g><path d="M 12.015625 -21.171875 C 15.617188 -21.171875 18.226562 -20.082031 19.84375 -17.90625 C 21.46875 -15.738281 22.132812 -12.691406 21.84375 -8.765625 L 5.96875 -8.765625 C 6.332031 -7.128906 7.09375 -5.84375 8.25 -4.90625 C 9.414062 -3.976562 10.828125 -3.515625 12.484375 -3.515625 C 14.847656 -3.515625 16.820312 -4.332031 18.40625 -5.96875 L 20.8125 -3.390625 C 18.65625 -1.023438 15.757812 0.15625 12.125 0.15625 C 8.882812 0.15625 6.28125 -0.820312 4.3125 -2.78125 C 2.351562 -4.75 1.375 -7.3125 1.375 -10.46875 C 1.375 -13.625 2.363281 -16.1875 4.34375 -18.15625 C 6.320312 -20.132812 8.878906 -21.140625 12.015625 -21.171875 Z M 5.890625 -12.09375 L 17.890625 -12.09375 C 17.816406 -13.769531 17.25 -15.09375 16.1875 -16.0625 C 15.132812 -17.039062 13.753906 -17.53125 12.046875 -17.53125 C 10.390625 -17.53125 9.015625 -17.039062 7.921875 -16.0625 C 6.828125 -15.09375 6.148438 -13.769531 5.890625 -12.09375 Z M 5.890625 -12.09375 "/></g></g></g><g fill="#ffffff" fill-opacity="1"><g transform="translate(423.595754, 955.995217)"><g/></g></g><g fill="#ffffff" fill-opacity="1"><g transform="translate(431.890274, 955.995217)"><g><path d="M 21.171875 -21.015625 L 11.609375 2.890625 C 10.316406 6.203125 8.039062 7.859375 4.78125 7.859375 C 2.957031 7.859375 1.335938 7.265625 -0.078125 6.078125 L 1.859375 2.5625 C 2.804688 3.25 3.710938 3.59375 4.578125 3.59375 C 6.003906 3.59375 7.070312 2.816406 7.78125 1.265625 L 8.5 -0.3125 L -0.203125 -21.015625 L 4.5 -21.015625 L 10.78125 -5.09375 L 16.625 -21.015625 Z M 21.171875 -21.015625 "/></g></g></g><g fill="#ffffff" fill-opacity="1"><g transform="translate(450.96844, 955.995217)"><g/></g></g><g fill="#ffffff" fill-opacity="1"><g transform="translate(459.262961, 955.995217)"><g><path d="M 22.4375 -21.015625 L 22.4375 0 L 17.890625 0 L 17.890625 -4.109375 C 16.523438 -1.316406 14.023438 0.101562 10.390625 0.15625 C 7.992188 0.15625 6.109375 -0.566406 4.734375 -2.015625 C 3.367188 -3.460938 2.6875 -5.4375 2.6875 -7.9375 L 2.6875 -21.015625 L 7.234375 -21.015625 L 7.234375 -9.203125 C 7.234375 -7.617188 7.664062 -6.375 8.53125 -5.46875 C 9.394531 -4.5625 10.59375 -4.109375 12.125 -4.109375 C 13.882812 -4.128906 15.285156 -4.753906 16.328125 -5.984375 C 17.367188 -7.210938 17.890625 -8.773438 17.890625 -10.671875 L 17.890625 -21.015625 Z M 22.4375 -21.015625 "/></g></g></g><g fill="#ffffff" fill-opacity="1"><g transform="translate(483.160174, 955.995217)"><g><path d="M 9.640625 -21.21875 C 12.535156 -21.21875 14.984375 -20.503906 16.984375 -19.078125 L 15.328125 -15.71875 C 13.328125 -16.957031 11.3125 -17.578125 9.28125 -17.578125 C 7.226562 -17.578125 6.203125 -16.878906 6.203125 -15.484375 C 6.203125 -14.796875 6.582031 -14.226562 7.34375 -13.78125 C 8.113281 -13.332031 9.039062 -12.957031 10.125 -12.65625 C 11.21875 -12.351562 12.3125 -12 13.40625 -11.59375 C 14.5 -11.1875 15.425781 -10.519531 16.1875 -9.59375 C 16.957031 -8.675781 17.34375 -7.503906 17.34375 -6.078125 C 17.34375 -4.054688 16.570312 -2.507812 15.03125 -1.4375 C 13.488281 -0.375 11.570312 0.15625 9.28125 0.15625 C 7.695312 0.15625 6.148438 -0.0976562 4.640625 -0.609375 C 3.128906 -1.117188 1.859375 -1.835938 0.828125 -2.765625 L 2.453125 -6 C 3.347656 -5.207031 4.445312 -4.570312 5.75 -4.09375 C 7.050781 -3.625 8.296875 -3.390625 9.484375 -3.390625 C 10.503906 -3.390625 11.332031 -3.570312 11.96875 -3.9375 C 12.601562 -4.3125 12.921875 -4.882812 12.921875 -5.65625 C 12.921875 -6.4375 12.535156 -7.0625 11.765625 -7.53125 C 11.003906 -8.007812 10.082031 -8.394531 9 -8.6875 C 7.925781 -8.976562 6.847656 -9.320312 5.765625 -9.71875 C 4.679688 -10.113281 3.765625 -10.765625 3.015625 -11.671875 C 2.265625 -12.578125 1.890625 -13.726562 1.890625 -15.125 C 1.890625 -17.125 2.632812 -18.640625 4.125 -19.671875 C 5.613281 -20.703125 7.453125 -21.21875 9.640625 -21.21875 Z M 9.640625 -21.21875 "/></g></g></g><g fill="#ffffff" fill-opacity="1"><g transform="translate(499.8288, 955.995217)"><g><path d="M 12.015625 -21.171875 C 15.617188 -21.171875 18.226562 -20.082031 19.84375 -17.90625 C 21.46875 -15.738281 22.132812 -12.691406 21.84375 -8.765625 L 5.96875 -8.765625 C 6.332031 -7.128906 7.09375 -5.84375 8.25 -4.90625 C 9.414062 -3.976562 10.828125 -3.515625 12.484375 -3.515625 C 14.847656 -3.515625 16.820312 -4.332031 18.40625 -5.96875 L 20.8125 -3.390625 C 18.65625 -1.023438 15.757812 0.15625 12.125 0.15625 C 8.882812 0.15625 6.28125 -0.820312 4.3125 -2.78125 C 2.351562 -4.75 1.375 -7.3125 1.375 -10.46875 C 1.375 -13.625 2.363281 -16.1875 4.34375 -18.15625 C 6.320312 -20.132812 8.878906 -21.140625 12.015625 -21.171875 Z M 5.890625 -12.09375 L 17.890625 -12.09375 C 17.816406 -13.769531 17.25 -15.09375 16.1875 -16.0625 C 15.132812 -17.039062 13.753906 -17.53125 12.046875 -17.53125 C 10.390625 -17.53125 9.015625 -17.039062 7.921875 -16.0625 C 6.828125 -15.09375 6.148438 -13.769531 5.890625 -12.09375 Z M 5.890625 -12.09375 "/></g></g></g><g fill="#ffffff" fill-opacity="1"><g transform="translate(122.53213, 1010.704555)"><g><path d="M 15.875 -27.765625 C 17.820312 -27.765625 19.722656 -27.390625 21.578125 -26.640625 C 23.441406 -25.890625 25.046875 -24.84375 26.390625 -23.5 L 23.65625 -20.109375 C 22.65625 -21.179688 21.46875 -22.035156 20.09375 -22.671875 C 18.726562 -23.304688 17.347656 -23.625 15.953125 -23.625 C 13.191406 -23.625 10.851562 -22.679688 8.9375 -20.796875 C 7.03125 -18.910156 6.078125 -16.613281 6.078125 -13.90625 C 6.078125 -11.164062 7.03125 -8.851562 8.9375 -6.96875 C 10.851562 -5.082031 13.191406 -4.140625 15.953125 -4.140625 C 18.828125 -4.140625 21.394531 -5.234375 23.65625 -7.421875 L 26.421875 -4.34375 C 25.003906 -2.945312 23.347656 -1.835938 21.453125 -1.015625 C 19.554688 -0.203125 17.644531 0.203125 15.71875 0.203125 C 11.664062 0.203125 8.253906 -1.144531 5.484375 -3.84375 C 2.722656 -6.550781 1.34375 -9.890625 1.34375 -13.859375 C 1.34375 -17.785156 2.742188 -21.082031 5.546875 -23.75 C 8.347656 -26.425781 11.789062 -27.765625 15.875 -27.765625 Z M 15.875 -27.765625 "/></g></g></g><g fill="#ffffff" fill-opacity="1"><g transform="translate(148.167369, 1010.704555)"><g><path d="M 5.5625 -23.75 C 8.382812 -26.425781 11.863281 -27.765625 16 -27.765625 C 20.132812 -27.765625 23.609375 -26.425781 26.421875 -23.75 C 29.242188 -21.082031 30.65625 -17.773438 30.65625 -13.828125 C 30.65625 -9.878906 29.242188 -6.550781 26.421875 -3.84375 C 23.609375 -1.144531 20.132812 0.203125 16 0.203125 C 11.863281 0.203125 8.382812 -1.144531 5.5625 -3.84375 C 2.75 -6.550781 1.34375 -9.878906 1.34375 -13.828125 C 1.34375 -17.773438 2.75 -21.082031 5.5625 -23.75 Z M 16.03125 -23.578125 C 13.289062 -23.578125 10.945312 -22.632812 9 -20.75 C 7.050781 -18.875 6.078125 -16.566406 6.078125 -13.828125 C 6.078125 -11.085938 7.054688 -8.757812 9.015625 -6.84375 C 10.984375 -4.9375 13.320312 -3.984375 16.03125 -3.984375 C 18.75 -3.984375 21.066406 -4.9375 22.984375 -6.84375 C 24.910156 -8.757812 25.875 -11.085938 25.875 -13.828125 C 25.875 -16.566406 24.910156 -18.875 22.984375 -20.75 C 21.066406 -22.632812 18.75 -23.578125 16.03125 -23.578125 Z M 16.03125 -23.578125 "/></g></g></g><g fill="#ffffff" fill-opacity="1"><g transform="translate(178.266169, 1010.704555)"><g><path d="M 27.140625 -27.65625 L 27.140625 -11.453125 C 27.140625 -7.847656 26.070312 -5.003906 23.9375 -2.921875 C 21.800781 -0.835938 18.863281 0.203125 15.125 0.203125 C 11.382812 0.203125 8.441406 -0.835938 6.296875 -2.921875 C 4.148438 -5.003906 3.078125 -7.847656 3.078125 -11.453125 L 3.078125 -27.65625 L 7.734375 -27.65625 L 7.734375 -11.453125 C 7.734375 -9.140625 8.398438 -7.316406 9.734375 -5.984375 C 11.066406 -4.648438 12.878906 -3.984375 15.171875 -3.984375 C 17.429688 -3.984375 19.210938 -4.640625 20.515625 -5.953125 C 21.816406 -7.273438 22.46875 -9.109375 22.46875 -11.453125 L 22.46875 -27.65625 Z M 27.140625 -27.65625 "/></g></g></g><g fill="#ffffff" fill-opacity="1"><g transform="translate(206.547948, 1010.704555)"><g><path d="M 3.640625 -27.65625 L 14.65625 -27.65625 C 18.132812 -27.65625 20.828125 -26.832031 22.734375 -25.1875 C 24.640625 -23.539062 25.59375 -21.210938 25.59375 -18.203125 C 25.59375 -15.078125 24.640625 -12.648438 22.734375 -10.921875 C 20.828125 -9.191406 18.132812 -8.328125 14.65625 -8.328125 L 8.296875 -8.328125 L 8.296875 0 L 3.640625 0 Z M 8.296875 -23.46875 L 8.296875 -12.515625 L 14.453125 -12.515625 C 18.898438 -12.515625 21.125 -14.375 21.125 -18.09375 C 21.125 -21.675781 18.898438 -23.46875 14.453125 -23.46875 Z M 8.296875 -23.46875 "/></g></g></g><g fill="#ffffff" fill-opacity="1"><g transform="translate(231.235184, 1010.704555)"><g><path d="M 5.5625 -23.75 C 8.382812 -26.425781 11.863281 -27.765625 16 -27.765625 C 20.132812 -27.765625 23.609375 -26.425781 26.421875 -23.75 C 29.242188 -21.082031 30.65625 -17.773438 30.65625 -13.828125 C 30.65625 -9.878906 29.242188 -6.550781 26.421875 -3.84375 C 23.609375 -1.144531 20.132812 0.203125 16 0.203125 C 11.863281 0.203125 8.382812 -1.144531 5.5625 -3.84375 C 2.75 -6.550781 1.34375 -9.878906 1.34375 -13.828125 C 1.34375 -17.773438 2.75 -21.082031 5.5625 -23.75 Z M 16.03125 -23.578125 C 13.289062 -23.578125 10.945312 -22.632812 9 -20.75 C 7.050781 -18.875 6.078125 -16.566406 6.078125 -13.828125 C 6.078125 -11.085938 7.054688 -8.757812 9.015625 -6.84375 C 10.984375 -4.9375 13.320312 -3.984375 16.03125 -3.984375 C 18.75 -3.984375 21.066406 -4.9375 22.984375 -6.84375 C 24.910156 -8.757812 25.875 -11.085938 25.875 -13.828125 C 25.875 -16.566406 24.910156 -18.875 22.984375 -20.75 C 21.066406 -22.632812 18.75 -23.578125 16.03125 -23.578125 Z M 16.03125 -23.578125 "/></g></g></g><g fill="#ffffff" fill-opacity="1"><g transform="translate(261.333982, 1010.704555)"><g><path d="M 27.609375 0 L 23.03125 0 L 8.296875 -19.828125 L 8.296875 0 L 3.640625 0 L 3.640625 -27.65625 L 8.21875 -27.65625 L 23.03125 -7.78125 L 23.03125 -27.65625 L 27.609375 -27.65625 Z M 27.609375 0 "/></g></g></g><g fill="#ffffff" fill-opacity="1"><g transform="translate(290.721785, 1010.704555)"><g><path d="M 11.375 -27.84375 C 14.007812 -27.84375 16.132812 -27.210938 17.75 -25.953125 C 19.375 -24.691406 20.1875 -23.003906 20.1875 -20.890625 C 20.1875 -18.472656 18.5 -15.445312 15.125 -11.8125 L 7.9375 -4.1875 L 21.453125 -4.1875 L 21.453125 0 L 1.78125 0 L 1.78125 -3.390625 L 11.96875 -14.34375 C 14.207031 -16.632812 15.328125 -18.59375 15.328125 -20.21875 C 15.328125 -21.332031 14.914062 -22.203125 14.09375 -22.828125 C 13.28125 -23.460938 12.148438 -23.78125 10.703125 -23.78125 C 8.203125 -23.78125 5.6875 -22.617188 3.15625 -20.296875 L 1.296875 -23.890625 C 4.535156 -26.523438 7.894531 -27.84375 11.375 -27.84375 Z M 11.375 -27.84375 "/></g></g></g><g fill="#ffffff" fill-opacity="1"><g transform="translate(312.051489, 1010.704555)"><g><path d="M 13.671875 -27.765625 C 17.429688 -27.765625 20.328125 -26.5625 22.359375 -24.15625 C 24.390625 -21.75 25.40625 -18.304688 25.40625 -13.828125 C 25.40625 -9.347656 24.390625 -5.898438 22.359375 -3.484375 C 20.328125 -1.078125 17.429688 0.125 13.671875 0.125 C 9.878906 0.125 6.96875 -1.078125 4.9375 -3.484375 C 2.90625 -5.898438 1.890625 -9.347656 1.890625 -13.828125 C 1.890625 -18.304688 2.90625 -21.75 4.9375 -24.15625 C 6.96875 -26.5625 9.878906 -27.765625 13.671875 -27.765625 Z M 13.671875 -24.09375 C 9.003906 -24.09375 6.671875 -20.671875 6.671875 -13.828125 C 6.671875 -6.984375 9.003906 -3.5625 13.671875 -3.5625 C 18.304688 -3.5625 20.625 -6.984375 20.625 -13.828125 C 20.625 -20.671875 18.304688 -24.09375 13.671875 -24.09375 Z M 13.671875 -24.09375 "/></g></g></g><g fill="#ffffff" fill-opacity="1"><g transform="translate(337.449738, 1010.704555)"><g><path d="M 5.5625 -23.75 C 8.382812 -26.425781 11.863281 -27.765625 16 -27.765625 C 20.132812 -27.765625 23.609375 -26.425781 26.421875 -23.75 C 29.242188 -21.082031 30.65625 -17.773438 30.65625 -13.828125 C 30.65625 -9.878906 29.242188 -6.550781 26.421875 -3.84375 C 23.609375 -1.144531 20.132812 0.203125 16 0.203125 C 11.863281 0.203125 8.382812 -1.144531 5.5625 -3.84375 C 2.75 -6.550781 1.34375 -9.878906 1.34375 -13.828125 C 1.34375 -17.773438 2.75 -21.082031 5.5625 -23.75 Z M 16.03125 -23.578125 C 13.289062 -23.578125 10.945312 -22.632812 9 -20.75 C 7.050781 -18.875 6.078125 -16.566406 6.078125 -13.828125 C 6.078125 -11.085938 7.054688 -8.757812 9.015625 -6.84375 C 10.984375 -4.9375 13.320312 -3.984375 16.03125 -3.984375 C 18.75 -3.984375 21.066406 -4.9375 22.984375 -6.84375 C 24.910156 -8.757812 25.875 -11.085938 25.875 -13.828125 C 25.875 -16.566406 24.910156 -18.875 22.984375 -20.75 C 21.066406 -22.632812 18.75 -23.578125 16.03125 -23.578125 Z M 16.03125 -23.578125 "/></g></g></g><g fill="#ffffff" fill-opacity="1"><g transform="translate(367.548546, 1010.704555)"><g><path d="M 22.15625 -23.46875 L 8.296875 -23.46875 L 8.296875 -15.484375 L 20.859375 -15.484375 L 20.859375 -11.34375 L 8.296875 -11.34375 L 8.296875 0 L 3.640625 0 L 3.640625 -27.65625 L 22.203125 -27.65625 Z M 22.15625 -23.46875 "/></g></g></g><g fill="#ffffff" fill-opacity="1"><g transform="translate(388.364745, 1010.704555)"><g><path d="M 22.15625 -23.46875 L 8.296875 -23.46875 L 8.296875 -15.484375 L 20.859375 -15.484375 L 20.859375 -11.34375 L 8.296875 -11.34375 L 8.296875 0 L 3.640625 0 L 3.640625 -27.65625 L 22.203125 -27.65625 Z M 22.15625 -23.46875 "/></g></g></g></svg>