<svg xmlns="http://www.w3.org/2000/svg" xmlns:xlink="http://www.w3.org/1999/xlink" width="1080" zoomAndPan="magnify" viewBox="0 0 810 809.999993" height="1080" preserveAspectRatio="xMidYMid meet" version="1.0"><defs><clipPath id="77b6c28a49"><path d="M 3.542969 0 L 806.792969 0 L 806.792969 809 L 3.542969 809 Z M 3.542969 0 " clip-rule="nonzero"/></clipPath></defs><g clip-path="url(#77b6c28a49)"><path fill="#8c52ff" d="M 234.617188 0.914062 L 575.640625 0.914062 C 639.097656 0.914062 696.835938 26.953125 738.722656 68.777344 C 780.675781 110.664062 806.71875 168.46875 806.71875 231.988281 L 806.71875 577.945312 C 806.71875 641.335938 780.675781 699.070312 738.855469 740.960938 L 738.722656 741.089844 C 696.769531 782.980469 639.03125 808.953125 575.707031 808.953125 L 234.617188 808.953125 C 171.097656 808.953125 113.292969 782.914062 71.40625 741.089844 L 69.828125 739.316406 C 28.925781 697.625 3.542969 640.546875 3.542969 577.878906 L 3.542969 231.988281 C 3.542969 168.402344 29.519531 110.664062 71.40625 68.777344 C 113.292969 26.890625 171.03125 0.914062 234.617188 0.914062 Z M 605.300781 204.898438 L 605.757812 205.621094 L 747.796875 205.621094 C 742.078125 168.269531 724.257812 134.734375 698.609375 109.019531 C 667.046875 77.457031 623.515625 57.863281 575.640625 57.863281 L 517.3125 57.863281 Z M 539.605469 205.621094 L 451.160156 57.863281 L 257.175781 57.863281 L 346.671875 205.621094 Z M 280.453125 205.621094 L 193.914062 62.660156 C 162.285156 70.289062 133.941406 86.664062 111.652344 109.019531 C 86.003906 134.667969 68.25 168.269531 62.464844 205.621094 Z M 749.769531 262.566406 L 60.492188 262.566406 L 60.492188 577.945312 C 60.492188 625.09375 79.496094 668.035156 110.203125 699.464844 L 111.652344 700.847656 C 143.214844 732.410156 186.8125 752.074219 234.617188 752.074219 L 575.640625 752.074219 C 623.515625 752.074219 667.046875 732.476562 698.542969 700.980469 L 698.675781 700.847656 C 730.175781 669.347656 749.769531 625.816406 749.769531 577.945312 Z M 338.582031 362.257812 L 515.011719 477.003906 C 517.839844 478.847656 520.40625 481.214844 522.441406 484.105469 C 530.464844 495.746094 527.507812 511.726562 515.867188 519.75 L 340.160156 623.449219 C 335.753906 627.066406 330.101562 629.234375 323.851562 629.234375 C 309.648438 629.234375 298.140625 617.726562 298.140625 603.523438 L 298.140625 383.300781 L 298.273438 383.300781 C 298.273438 378.238281 299.785156 373.105469 302.875 368.636719 C 311.03125 356.996094 327.007812 354.167969 338.582031 362.257812 Z M 338.582031 362.257812 " fill-opacity="1" fill-rule="nonzero"/></g></svg>